<?xml version="1.0" standalone="no"?>
<!DOCTYPE svg PUBLIC "-//W3C//DTD SVG 20010904//EN"
 "http://www.w3.org/TR/2001/REC-SVG-20010904/DTD/svg10.dtd">
<svg version="1.0" xmlns="http://www.w3.org/2000/svg"
 width="512.000000pt" height="512.000000pt" viewBox="0 0 512.000000 512.000000"
 preserveAspectRatio="xMidYMid meet">

<g transform="translate(0.000000,512.000000) scale(0.100000,-0.100000)"
fill="#000000" stroke="none">
<path d="M3990 5106 c-341 -67 -590 -251 -730 -540 -67 -138 -91 -233 -97
-387 -14 -330 118 -662 415 -1044 90 -115 415 -448 491 -503 66 -48 85 -44
187 44 296 256 569 592 705 869 156 320 193 598 113 872 -97 335 -374 594
-724 678 -89 21 -279 27 -360 11z m251 -620 c179 -54 291 -248 249 -427 -18
-77 -45 -126 -99 -178 -166 -161 -430 -135 -556 54 -135 205 -41 473 195 551
49 17 156 16 211 0z"/>
<path d="M1056 3559 c-374 -66 -684 -279 -878 -604 -175 -293 -214 -657 -113
-1030 125 -456 482 -967 1020 -1455 177 -161 162 -162 365 16 425 373 789 859
946 1264 97 253 136 536 103 753 -29 196 -124 422 -241 577 -238 314 -617 502
-1008 499 -47 0 -134 -9 -194 -20z m346 -783 c105 -32 217 -125 270 -223 129
-235 33 -536 -207 -650 -264 -125 -560 -1 -657 276 -27 79 -27 215 1 295 57
160 201 288 358 316 61 11 174 4 235 -14z"/>
</g>
</svg>
