<?xml version="1.0" standalone="no"?>
<!DOCTYPE svg PUBLIC "-//W3C//DTD SVG 20010904//EN"
 "http://www.w3.org/TR/2001/REC-SVG-20010904/DTD/svg10.dtd">
<svg version="1.0" xmlns="http://www.w3.org/2000/svg"
 width="256.000000pt" height="256.000000pt" viewBox="0 0 256.000000 256.000000"
 preserveAspectRatio="xMidYMid meet">

<g transform="translate(0.000000,256.000000) scale(0.100000,-0.100000)"
fill="#000000" stroke="none">
<path d="M1215 2546 c-16 -8 -64 -39 -105 -69 -41 -31 -86 -58 -99 -60 -14 -3
-66 0 -116 6 -164 19 -210 -7 -270 -153 -21 -48 -49 -99 -64 -113 -14 -14 -61
-40 -105 -57 -152 -63 -177 -108 -157 -273 15 -121 12 -129 -63 -230 -70 -93
-86 -147 -62 -210 9 -24 37 -71 63 -103 71 -92 76 -109 62 -223 -6 -54 -9
-115 -5 -135 10 -54 67 -105 154 -139 39 -16 72 -34 72 -39 0 -6 -56 -109
-125 -228 -69 -119 -125 -226 -125 -237 0 -36 22 -42 165 -45 l138 -3 60 -113
c47 -87 66 -114 85 -119 35 -8 47 7 186 250 65 114 122 207 126 207 4 0 44
-27 90 -60 46 -33 100 -65 122 -70 56 -16 102 1 198 70 46 33 86 60 91 60 4 0
21 -24 37 -54 17 -29 38 -56 48 -60 38 -15 59 41 29 80 -8 10 -15 22 -15 27 0
4 35 5 78 1 126 -10 174 23 228 157 14 35 29 68 34 72 6 7 196 -305 214 -353
5 -13 -12 -15 -116 -15 l-123 0 -55 -102 c-30 -56 -57 -103 -60 -103 -3 0 -23
31 -44 70 -41 72 -66 91 -91 70 -23 -19 -19 -31 36 -127 94 -164 109 -164 196
-1 l60 113 138 3 c143 3 165 9 165 45 0 11 -56 118 -125 237 -69 119 -125 222
-125 227 0 6 26 21 58 34 92 37 130 65 154 114 21 43 22 49 10 154 -14 128
-13 134 63 238 96 132 96 181 -1 311 -75 100 -78 108 -63 229 20 165 -5 210
-157 273 -44 17 -91 43 -105 57 -15 14 -43 65 -64 113 -60 146 -106 172 -270
153 -50 -6 -102 -9 -116 -6 -13 2 -58 29 -99 60 -114 84 -166 100 -235 69z
m170 -116 c116 -87 134 -94 245 -85 181 16 189 12 241 -114 48 -116 68 -137
183 -191 143 -67 140 -62 131 -217 -8 -151 -5 -161 79 -271 41 -54 56 -82 56
-106 0 -31 -8 -45 -95 -172 l-40 -58 3 -146 c3 -174 7 -167 -130 -225 -108
-46 -142 -81 -187 -193 -49 -122 -55 -125 -221 -117 l-135 7 -64 -43 c-35 -24
-82 -56 -104 -71 -52 -35 -82 -35 -134 0 -22 15 -69 47 -104 70 l-64 44 -140
-7 c-138 -6 -141 -6 -162 17 -12 13 -38 61 -57 107 -46 110 -79 142 -187 187
-131 54 -130 52 -127 225 l3 145 -40 58 c-88 127 -95 141 -95 172 0 24 14 51
51 101 91 119 92 124 84 274 -9 158 -12 152 131 219 115 54 135 75 183 191 52
126 60 130 241 114 111 -9 118 -6 239 81 99 72 125 73 216 4z m-755 -1832 c52
-126 104 -157 236 -143 42 4 65 3 63 -3 -9 -22 -194 -342 -199 -342 -3 0 -30
47 -60 103 l-55 102 -123 0 c-104 0 -121 2 -116 15 18 48 208 360 214 353 4
-4 22 -43 40 -85z"/>
<path d="M1252 2308 c-7 -7 -12 -35 -12 -63 l0 -51 -75 -12 c-42 -7 -110 -25
-152 -42 -42 -16 -78 -28 -78 -27 -52 92 -58 98 -77 95 -40 -6 -44 -32 -15
-86 l27 -50 -63 -50 c-34 -28 -84 -78 -111 -112 l-48 -61 -43 26 c-50 29 -68
31 -85 10 -19 -23 -4 -48 45 -74 34 -18 44 -28 39 -40 -28 -68 -55 -158 -65
-218 l-12 -73 -51 0 c-54 0 -76 -12 -76 -42 0 -24 30 -38 84 -38 l45 0 6 -47
c5 -42 48 -189 69 -235 6 -13 -3 -24 -43 -48 -53 -33 -64 -57 -35 -81 14 -11
24 -9 71 15 l54 29 16 -24 c21 -31 151 -161 182 -182 l24 -16 -27 -45 c-30
-51 -32 -68 -11 -86 23 -19 48 -4 75 45 14 25 27 45 29 45 2 0 32 -11 67 -25
57 -23 104 -35 196 -50 l37 -6 3 -56 c3 -63 23 -87 56 -67 12 8 18 27 20 67
l3 56 37 6 c92 15 139 27 196 50 35 14 65 25 67 25 2 0 15 -20 29 -45 27 -49
52 -64 75 -45 21 18 19 35 -11 86 l-27 45 24 16 c31 21 161 151 182 182 l16
24 54 -29 c47 -24 57 -26 71 -15 29 24 18 48 -35 81 -40 24 -49 35 -43 48 21
46 64 192 69 234 l6 47 56 3 c40 2 59 8 67 21 20 31 -4 52 -66 55 l-56 3 -7
47 c-10 67 -29 85 -64 63 -11 -7 -14 -34 -12 -123 1 -85 -3 -132 -18 -189 -78
-303 -342 -509 -651 -509 -242 0 -466 130 -587 342 -52 89 -76 178 -80 298 -6
136 10 218 62 325 114 235 343 377 606 377 257 -1 477 -135 599 -364 32 -60
56 -72 80 -43 12 14 11 30 -4 65 -4 11 7 22 39 40 49 27 64 52 45 75 -17 21
-35 19 -85 -10 l-43 -26 -50 63 c-27 35 -77 85 -111 112 l-61 49 27 49 c29 54
25 80 -15 86 -17 3 -27 -8 -49 -47 -20 -37 -32 -49 -43 -44 -60 26 -183 63
-231 68 l-59 7 0 52 c0 53 -12 76 -40 76 -9 0 -21 -5 -28 -12z"/>
<path d="M1233 1957 c-10 -13 -38 -85 -63 -160 l-44 -137 -42 0 c-40 0 -74
-19 -74 -40 0 -38 113 -56 157 -25 15 10 35 56 65 145 23 72 45 130 48 130 3
0 25 -58 48 -129 24 -71 50 -135 59 -143 11 -9 61 -15 162 -18 l146 -5 -112
-80 c-61 -44 -116 -91 -122 -103 -11 -22 10 -102 74 -290 6 -16 5 -16 -128 80
-60 43 -117 78 -127 78 -10 0 -67 -35 -127 -78 -133 -96 -134 -96 -129 -80 3
7 23 71 46 142 l42 128 -19 27 c-11 14 -66 59 -122 100 -96 70 -101 74 -81 88
40 28 18 73 -36 73 -64 0 -107 -67 -71 -112 8 -11 181 -140 244 -182 1 -1 -18
-64 -42 -140 -51 -158 -55 -188 -23 -210 40 -28 66 -19 194 74 l125 91 123
-91 c131 -95 167 -108 199 -72 25 28 21 57 -28 208 -24 76 -43 139 -42 140 63
42 236 170 245 182 21 27 14 69 -14 91 -24 19 -40 21 -178 21 l-152 0 -47 144
c-26 79 -56 151 -66 160 -26 23 -66 20 -88 -7z"/>
</g>
</svg>
