<?xml version="1.0" standalone="no"?>
<!DOCTYPE svg PUBLIC "-//W3C//DTD SVG 20010904//EN"
 "http://www.w3.org/TR/2001/REC-SVG-20010904/DTD/svg10.dtd">
<svg version="1.0" xmlns="http://www.w3.org/2000/svg"
 width="256.000000pt" height="256.000000pt" viewBox="0 0 256.000000 256.000000"
 preserveAspectRatio="xMidYMid meet">

<g transform="translate(0.000000,256.000000) scale(0.100000,-0.100000)"
fill="#000000" stroke="none">
<path d="M1115 2509 c-470 -65 -847 -356 -1014 -783 -61 -157 -76 -243 -76
-441 1 -150 4 -183 28 -278 93 -372 316 -655 650 -823 183 -93 357 -134 563
-134 331 0 628 123 864 360 185 184 307 417 351 670 18 103 16 315 -4 420 -97
501 -482 893 -979 994 -98 20 -292 28 -383 15z m333 -79 c386 -49 730 -299
897 -653 286 -603 13 -1312 -605 -1572 -45 -19 -89 -35 -99 -35 -12 0 -22 15
-33 48 l-15 48 76 27 c456 161 747 636 680 1113 -93 673 -768 1087 -1403 860
-105 -37 -199 -87 -272 -142 -46 -35 -46 -35 -68 -16 -11 10 -29 22 -38 25
-32 11 -19 31 55 83 243 174 537 250 825 214z m52 -199 c369 -97 639 -385 716
-762 33 -162 9 -391 -59 -559 -93 -230 -285 -426 -512 -525 -43 -19 -80 -33
-81 -32 -1 1 -18 50 -37 109 l-35 108 113 0 c101 0 115 2 141 22 41 32 52 48
64 91 7 25 8 49 1 74 -9 30 -7 40 9 61 30 37 43 96 31 138 -8 30 -6 40 16 72
22 33 24 45 20 102 -3 54 0 70 17 95 31 44 29 138 -3 184 -45 63 -79 71 -323
71 -120 0 -218 1 -218 3 0 1 9 25 19 52 41 108 32 250 -23 371 -32 69 -105
147 -169 179 -68 33 -101 32 -138 -4 l-29 -29 0 -174 c0 -170 -1 -174 -29
-234 -19 -40 -57 -91 -114 -150 -47 -49 -87 -87 -90 -84 -13 12 -28 209 -22
273 17 162 6 211 -61 300 -24 31 -44 61 -44 66 0 20 152 108 262 152 157 63
402 75 578 30z m-827 -250 c70 -92 71 -94 72 -326 1 -115 5 -224 9 -241 7 -26
4 -31 -17 -41 -14 -7 -88 -14 -164 -18 -76 -3 -171 -8 -210 -11 l-73 -5 0 43
c0 120 73 315 171 459 40 60 155 189 168 189 4 0 24 -22 44 -49z m500 -12 c53
-44 85 -98 103 -177 22 -92 14 -167 -30 -274 -42 -102 -43 -118 -15 -144 19
-17 44 -19 293 -24 l271 -5 0 -30 c0 -28 -2 -30 -49 -36 -52 -6 -76 -26 -76
-66 0 -26 29 -55 62 -63 12 -3 26 -13 32 -22 15 -24 -4 -40 -55 -47 -58 -8
-87 -46 -68 -87 9 -17 28 -32 49 -39 29 -10 35 -17 35 -41 0 -27 -4 -29 -42
-35 -46 -6 -83 -32 -83 -58 0 -27 30 -61 54 -61 28 0 46 -18 46 -45 0 -39 -19
-45 -132 -45 l-108 0 -15 37 c-25 61 -92 141 -148 178 -29 19 -99 53 -155 75
-57 22 -123 53 -147 70 -82 57 -147 153 -176 263 l-12 45 39 33 c96 81 202
197 227 249 30 62 46 162 47 293 0 48 3 87 8 87 4 0 25 -14 45 -31z m-853
-652 c0 -2 -9 -12 -19 -21 -19 -17 -19 -17 -14 3 3 12 12 21 19 21 8 0 14 -2
14 -3z m250 -202 c-182 -182 -206 -203 -217 -188 -7 9 -13 19 -13 23 0 3 78
83 173 177 172 172 176 175 257 192 3 1 -87 -91 -200 -204z m-210 130 c-63
-64 -65 -65 -68 -39 -5 38 60 104 102 104 30 0 30 0 -34 -65z m60 -50 c-108
-108 -115 -114 -118 -89 -3 22 11 42 84 115 72 73 94 89 119 89 28 0 24 -6
-85 -115z m69 -51 c-84 -84 -156 -151 -161 -148 -27 17 -1 56 123 180 119 119
133 130 161 126 30 -5 28 -7 -123 -158z m311 106 c0 -8 -91 -106 -202 -217
-194 -194 -203 -202 -215 -180 -11 21 1 35 195 229 198 200 221 217 222 168z
m-162 -287 c-193 -194 -202 -201 -216 -181 -14 19 -4 31 189 224 195 195 204
203 216 181 11 -21 -1 -35 -189 -224z m231 149 c8 -16 -21 -49 -189 -217 -190
-190 -200 -198 -214 -180 -14 19 -3 32 182 218 108 108 200 197 204 197 4 0
12 -8 17 -18z m52 -58 c11 -13 -11 -38 -157 -185 -154 -154 -172 -169 -204
-169 -34 0 -33 2 150 185 102 102 188 185 191 185 4 0 12 -7 20 -16z m65 -55
c4 -7 -54 -72 -137 -155 -121 -121 -148 -144 -174 -144 -28 0 -19 10 125 155
85 85 160 155 167 155 6 0 15 -5 19 -11z m71 -37 c8 -5 -32 -53 -126 -146
-119 -119 -142 -137 -161 -131 -21 7 -10 20 116 146 76 76 143 139 149 139 5
0 15 -4 22 -8z m93 -39 c2 -2 -54 -62 -125 -133 -104 -104 -135 -130 -157
-130 -16 0 -28 3 -28 7 0 4 60 67 132 140 106 107 137 132 153 127 11 -4 22
-8 25 -11z m63 -26 c16 -11 5 -24 -101 -130 -105 -103 -123 -117 -153 -117
-33 0 -33 1 96 130 71 72 132 130 135 130 4 0 14 -6 23 -13z m75 -39 c10 -10
-8 -32 -80 -105 -82 -82 -97 -93 -128 -93 l-35 0 105 105 c58 58 109 105 115
105 6 0 16 -5 23 -12z m62 -61 c0 -7 -28 -40 -62 -74 -53 -53 -68 -63 -97 -63
l-36 0 85 85 c64 65 87 82 97 73 7 -6 13 -15 13 -21z m50 -67 c0 -18 -60 -59
-95 -65 l-40 -7 55 56 c50 51 56 55 67 39 7 -9 13 -20 13 -23z m24 -45 c4 -10
-1 -15 -16 -15 -17 0 -18 2 -8 15 7 8 14 15 15 15 2 0 5 -7 9 -15z m-646 -61
c103 -35 114 -36 317 -44 116 -5 246 -9 290 -10 l80 0 33 -107 c18 -60 33
-111 32 -114 0 -10 -77 -27 -179 -39 -150 -19 -317 7 -478 73 -115 47 -278
165 -346 250 l-31 40 88 -6 c60 -5 122 -19 194 -43z"/>
</g>
</svg>
