<?xml version="1.0" standalone="no"?>
<!DOCTYPE svg PUBLIC "-//W3C//DTD SVG 20010904//EN"
 "http://www.w3.org/TR/2001/REC-SVG-20010904/DTD/svg10.dtd">
<svg version="1.0" xmlns="http://www.w3.org/2000/svg"
 width="787.000000pt" height="1705.000000pt" viewBox="0 0 787.000000 1705.000000"
 preserveAspectRatio="xMidYMid meet">
<metadata>
Created by potrace 1.16, written by Peter Selinger 2001-2019
</metadata>
<g transform="translate(0.000000,1705.000000) scale(0.100000,-0.100000)"
fill="#000000" stroke="none">
<path d="M2618 15389 c-2 -6 -18 -12 -36 -13 -20 -1 -30 -5 -28 -13 6 -15 -17
-23 -35 -12 -19 12 -52 11 -44 0 7 -12 -31 -34 -44 -27 -5 3 -14 -1 -21 -9 -6
-7 -19 -11 -28 -8 -12 5 -10 0 6 -17 12 -14 22 -31 21 -40 -1 -8 -1 -24 0 -35
1 -15 3 -17 10 -6 6 9 11 10 15 2 11 -17 36 -13 37 7 0 10 3 12 6 5 2 -7 10
-13 17 -13 7 0 18 -11 24 -25 8 -17 17 -23 27 -18 12 4 13 9 6 16 -15 15 -14
40 1 35 21 -7 28 -46 12 -63 -14 -13 -14 -16 0 -21 17 -6 23 -36 7 -31 -5 1
-17 -7 -25 -18 -12 -15 -15 -16 -16 -5 0 20 -30 45 -63 54 -15 3 -27 11 -27
16 0 6 -9 10 -20 10 -11 0 -23 7 -26 15 -4 8 -12 15 -19 15 -8 0 -16 8 -18 18
-4 16 -5 16 -6 0 -1 -20 -36 -24 -61 -9 -28 18 -32 -2 -4 -24 28 -22 28 -22 6
-29 -25 -8 -30 -26 -7 -26 8 0 15 4 15 9 0 15 28 21 33 6 9 -21 -31 -57 -55
-49 -17 5 -18 3 -9 -15 7 -12 16 -21 21 -21 5 0 11 -8 13 -17 2 -10 3 -5 0 12
-3 26 -2 28 12 15 13 -14 22 -52 24 -103 1 -9 12 -23 26 -29 27 -12 36 -44 9
-34 -8 3 -22 -1 -30 -9 -18 -18 -44 -20 -44 -4 0 6 -7 9 -15 5 -8 -3 -15 -1
-15 4 0 5 -12 8 -27 6 -16 -1 -34 2 -40 7 -9 6 -13 6 -13 -2 0 -6 -5 -11 -11
-11 -13 0 -48 -40 -48 -55 0 -5 6 -2 13 8 12 15 15 15 26 2 10 -12 8 -16 -11
-24 -13 -5 -26 -7 -29 -6 -3 2 -6 -8 -6 -21 -1 -13 2 -24 7 -24 5 0 9 -7 9
-16 0 -8 -4 -13 -9 -9 -11 6 -26 -33 -17 -42 3 -3 12 0 21 7 10 8 15 9 15 2 0
-6 -9 -16 -20 -22 -14 -7 -20 -7 -20 0 0 5 -8 10 -17 10 -15 0 -16 2 -3 10 12
8 11 10 -6 10 -11 0 -24 -3 -28 -7 -14 -15 -36 -11 -36 7 0 14 5 17 23 13 l22
-6 -22 25 c-28 29 -29 40 -5 31 13 -5 15 -3 5 7 -20 22 -46 4 -41 -29 3 -22 1
-28 -11 -23 -10 4 -13 1 -8 -11 6 -16 -4 -21 -40 -20 -7 1 -10 -3 -7 -8 3 -5
14 -9 25 -9 10 0 20 -3 20 -7 8 -52 7 -65 -3 -55 -9 9 -16 8 -30 -5 -17 -15
-18 -15 -18 5 0 13 6 22 15 22 29 0 14 20 -31 41 -34 16 -48 19 -57 10 -8 -8
-8 -11 1 -11 7 0 21 -8 30 -17 9 -10 15 -17 14 -16 -2 1 -17 -3 -33 -9 -21 -7
-29 -16 -29 -34 l0 -25 -30 22 c-16 12 -26 27 -23 33 5 7 8 7 10 -1 5 -14 40
-5 47 13 6 15 -10 29 -18 15 -8 -13 -56 11 -57 29 -1 8 -1 18 0 23 1 7 -13 10
-25 5 -3 -2 -10 5 -15 15 -6 9 -14 15 -20 12 -5 -4 -9 -1 -9 4 0 6 5 11 10 11
19 0 10 17 -17 31 -16 8 -36 23 -45 34 -10 11 -17 15 -18 8 0 -8 -9 -11 -22
-9 -13 3 -25 5 -28 5 -3 1 2 6 10 12 11 8 9 9 -10 3 -14 -4 -26 -10 -28 -15
-2 -4 -10 -5 -18 -2 -9 3 -14 -1 -14 -13 0 -16 -2 -17 -10 -4 -5 8 -10 11 -10
6 0 -5 -7 -2 -17 5 -9 8 -19 13 -22 12 -3 -2 -6 7 -6 20 0 15 -10 27 -31 38
-18 8 -39 23 -48 32 -9 8 -25 19 -36 22 -11 3 -20 10 -20 15 0 4 -24 7 -52 5
-36 -1 -59 2 -70 13 -16 14 -18 13 -18 -1 0 -10 -5 -17 -11 -17 -8 0 -7 -6 2
-17 13 -15 12 -16 -9 -11 -12 4 -22 3 -22 -1 0 -5 -10 -13 -22 -20 -21 -10
-20 -11 10 -6 24 3 32 1 29 -8 -2 -6 -18 -12 -35 -12 -25 0 -31 -3 -27 -16 3
-9 -5 -23 -19 -34 -14 -11 -23 -22 -20 -26 2 -4 -6 -10 -18 -14 -13 -4 -32 -9
-42 -12 -14 -4 -18 -1 -13 10 4 10 0 17 -10 19 -16 3 -26 58 -11 58 4 0 8 5 8
10 0 6 -7 10 -15 10 -9 0 -18 7 -21 15 -4 8 -15 15 -26 15 -10 0 -33 13 -51
29 -29 28 -30 31 -14 48 16 18 15 19 -16 19 -28 0 -32 -3 -32 -25 0 -15 5 -30
10 -34 6 -5 4 -7 -5 -4 -8 2 -13 12 -12 22 3 16 2 17 -12 6 -10 -8 -28 -11
-46 -7 -31 6 -36 1 -21 -23 5 -7 14 -10 20 -7 6 4 11 3 11 -3 0 -5 9 -12 19
-16 18 -5 36 -44 26 -54 -3 -2 -17 6 -32 20 -15 13 -21 16 -14 7 12 -17 9 -18
-43 -15 -60 2 -86 -14 -64 -40 7 -9 7 -17 -2 -28 -10 -12 -9 -15 7 -15 10 0
24 5 30 11 8 8 10 2 8 -22 -1 -18 -7 -35 -13 -37 -6 -2 -8 -10 -5 -18 4 -10
-3 -14 -26 -14 -38 0 -41 -17 -3 -26 15 -4 30 -9 34 -11 9 -5 -14 -43 -26 -43
-4 0 -3 6 3 14 20 24 -4 26 -45 5 -55 -30 -61 -37 -31 -44 14 -4 28 -13 31
-21 8 -20 -13 -51 -37 -58 -18 -4 -18 -6 -3 -21 14 -14 18 -14 30 -3 7 8 17
29 21 46 6 28 11 32 38 32 l32 -1 -29 -23 c-24 -20 -28 -29 -23 -56 6 -26 4
-31 -11 -29 -9 2 -41 -3 -70 -10 -56 -14 -86 -4 -75 25 4 10 -2 14 -21 14 -14
0 -26 -5 -26 -11 0 -6 6 -9 13 -6 7 3 19 -4 25 -14 8 -12 8 -19 2 -19 -16 0
-11 -37 6 -44 10 -4 13 -13 9 -26 -4 -14 -2 -20 9 -20 9 0 13 7 11 20 -4 22
10 36 20 20 8 -14 44 10 38 26 -6 16 34 37 54 29 9 -3 19 -2 22 3 9 15 51 25
51 13 0 -6 -4 -11 -8 -11 -5 0 -17 -7 -28 -15 -18 -14 -17 -14 14 -9 25 5 32
3 32 -10 0 -9 5 -16 10 -16 9 0 11 7 9 27 0 4 8 10 18 14 17 7 17 8 1 8 -10 1
-18 6 -18 12 0 7 10 9 27 4 38 -9 38 -10 18 -41 -9 -15 -12 -23 -6 -20 7 5 11
-2 11 -18 0 -15 -8 -31 -20 -38 -11 -7 -20 -19 -20 -27 0 -10 3 -11 14 -2 10
9 15 8 19 -3 7 -19 -1 -26 -30 -26 -16 0 -23 6 -23 20 0 28 -29 25 -40 -5 -11
-28 -30 -34 -30 -9 0 14 -3 14 -15 4 -16 -14 -21 -35 -5 -25 5 3 19 0 30 -7
17 -11 22 -11 30 2 7 11 12 12 20 4 9 -9 4 -20 -17 -44 -28 -31 -30 -32 -47
-14 -17 16 -19 16 -28 1 -13 -24 -23 -21 -37 9 -10 23 -10 26 6 20 15 -6 15
-5 -1 13 -20 22 -41 18 -32 -5 3 -7 1 -16 -4 -19 -6 -4 -10 -1 -10 5 0 8 -9
10 -25 6 -19 -5 -25 -2 -25 9 0 9 5 13 10 10 6 -3 10 -2 10 4 0 6 8 7 17 4 16
-6 16 -5 4 10 -7 9 -9 17 -3 17 10 0 26 30 19 37 -9 8 -37 -10 -37 -25 0 -10
-10 -5 -29 17 -16 18 -34 30 -40 26 -11 -6 -57 20 -54 32 1 3 7 9 13 13 19 12
1 32 -21 25 -11 -4 -19 -2 -19 5 0 6 5 8 11 5 7 -5 9 7 5 36 -2 23 -10 46 -18
50 -17 11 -5 21 29 25 15 1 29 8 31 13 2 6 8 11 14 11 6 0 7 -7 4 -16 -3 -8
-2 -12 3 -9 5 3 12 1 16 -5 4 -6 16 -5 35 5 16 8 36 12 44 9 9 -3 16 -1 16 6
0 6 4 8 10 5 5 -3 7 0 4 8 -3 9 -13 13 -25 10 -10 -3 -19 -1 -19 5 0 6 -10 8
-22 4 -17 -4 -20 -2 -15 12 4 10 1 19 -9 23 -20 8 -29 -4 -16 -20 11 -13 7
-27 -7 -27 -3 0 -12 13 -19 29 -7 17 -22 31 -34 33 -24 3 -34 38 -11 38 21 0
6 38 -26 66 -15 12 -33 34 -40 48 -8 14 -19 26 -24 26 -12 0 -87 75 -87 87 0
5 -20 32 -45 59 -25 27 -45 53 -45 57 0 5 -7 7 -15 3 -8 -3 -15 -1 -15 4 0 14
-44 12 -58 -2 -9 -9 -12 -438 -11 -1873 0 -1023 4 -1851 8 -1841 7 18 8 18 14
-5 10 -34 8 -46 -3 -29 -8 12 -10 11 -10 -7 0 -18 6 -23 26 -23 14 0 23 -4 19
-10 -3 -6 -17 -7 -31 -4 l-24 6 0 -97 c0 -94 1 -97 18 -82 10 10 22 14 25 10
12 -12 7 -22 -8 -17 -10 4 -15 0 -15 -11 0 -9 -4 -13 -10 -10 -6 4 -10 -7 -10
-27 0 -25 3 -29 10 -18 5 8 10 13 11 10 6 -30 4 -50 -6 -54 -6 -2 -12 -26 -14
-52 -1 -27 1 -45 5 -42 9 9 44 -9 44 -23 0 -6 -10 -9 -23 -7 l-22 3 -2 -633
c-2 -411 1 -631 7 -627 6 3 10 1 10 -4 0 -6 -4 -11 -10 -11 -7 0 -10 -1530
-10 -4530 0 -3016 3 -4530 10 -4530 13 0 13 -67 0 -75 -6 -4 -10 -90 -10 -226
l0 -219 3043 0 3044 0 -5 30 c-3 19 0 30 7 30 7 0 11 -6 10 -12 -6 -51 -42
-48 521 -48 l521 0 -3 41 c-1 23 -8 43 -14 46 -7 3 -10 11 -8 18 3 7 1 16 -5
20 -10 5 -15 -7 -12 -27 0 -5 -8 -8 -19 -8 -11 0 -20 5 -20 10 0 6 7 10 15 10
13 0 15 7 9 37 -4 20 -14 44 -23 55 -9 10 -16 22 -16 26 -1 4 -6 17 -13 29 -8
14 -8 24 -2 28 5 3 17 -12 26 -34 8 -22 22 -42 30 -45 8 -3 14 -16 14 -29 0
-13 11 -34 24 -46 13 -13 27 -38 31 -57 5 -29 9 -34 26 -29 13 4 19 2 19 -9 0
-21 16 -21 24 0 5 12 10 11 33 -10 l27 -25 293 -1 293 0 0 419 c0 232 -4 422
-9 425 -5 3 -9 24 -9 47 -1 22 -4 54 -7 70 -5 21 -2 31 9 35 14 6 16 83 16
772 l0 765 -40 70 c-37 63 -39 72 -25 86 10 10 15 11 15 3 0 -7 -5 -12 -11
-12 -5 0 -7 -5 -4 -10 4 -6 11 -8 16 -5 5 4 9 -1 9 -10 0 -25 34 -14 38 12 2
14 -4 27 -17 35 -24 15 -27 28 -7 28 8 0 18 5 22 12 5 7 0 9 -14 6 -28 -8 -55
13 -46 35 3 9 10 14 15 11 12 -7 11 3 -2 27 -5 11 -14 17 -20 14 -5 -4 -9 6
-9 20 0 22 4 26 23 23 18 -2 21 -8 19 -35 -2 -18 1 -33 6 -33 5 0 8 15 6 33
-1 17 -3 38 -3 45 -1 7 -6 10 -12 6 -7 -4 -10 -1 -7 7 3 8 14 14 26 13 l21 0
1 1137 c0 915 -2 1137 -12 1135 -7 0 -13 4 -13 9 0 6 6 9 13 9 9 -1 12 167 12
811 l0 813 -35 12 -36 12 23 21 c13 12 23 32 24 44 0 20 -1 20 -20 7 -24 -16
-40 -19 -31 -4 3 6 2 10 -3 10 -6 0 -12 -6 -15 -14 -3 -7 -19 -18 -35 -24 -26
-9 -31 -8 -43 15 -11 20 -11 26 1 33 8 5 21 5 29 0 11 -5 24 1 42 21 14 16 24
31 21 34 -3 3 -1 5 5 5 6 0 16 -7 23 -15 17 -20 27 -19 33 4 6 25 -2 34 -20
20 -10 -9 -13 -8 -13 4 0 20 36 42 43 27 3 -6 4 -5 3 2 -2 7 -15 12 -30 11
-14 -1 -24 2 -21 8 4 5 -4 9 -17 10 -13 0 -17 3 -10 6 6 2 12 12 12 20 0 11
-4 13 -12 6 -17 -13 -95 -15 -103 -3 -3 6 3 10 14 10 23 0 29 16 9 23 -7 2 0
2 15 0 19 -3 27 -1 25 9 -2 8 5 12 21 10 21 -2 22 0 10 15 -12 15 -12 16 4 10
9 -3 17 -2 17 2 0 5 -7 11 -15 15 -8 3 -15 1 -15 -4 0 -17 -14 -10 -32 14 -22
30 -13 66 15 63 12 -1 22 4 22 11 0 7 5 16 11 20 6 4 11 14 11 23 0 11 -7 14
-24 11 -19 -4 -22 -9 -17 -31 l6 -26 -21 25 c-11 14 -21 23 -21 20 -9 -51 -8
-105 0 -115 15 -18 -1 -24 -27 -10 -17 9 -20 14 -11 23 7 7 9 12 5 12 -3 0 -2
11 3 25 9 22 7 27 -16 35 -37 14 -44 13 -44 -12 0 -26 -13 -16 -17 15 -2 12 3
26 10 32 23 17 42 58 28 63 -14 5 -15 32 0 32 5 0 7 5 4 11 -5 7 -14 4 -27 -8
-15 -13 -22 -15 -25 -5 -3 6 -9 10 -14 7 -5 -4 -6 1 -3 9 3 8 11 13 17 11 7
-3 21 7 31 22 11 14 13 23 6 18 -18 -11 -100 -14 -100 -3 0 4 -9 8 -20 8 -27
0 -25 8 7 42 14 15 27 36 28 47 1 11 9 29 19 40 18 19 17 20 -20 8 -29 -9 -38
-9 -42 1 -4 14 -32 16 -32 2 0 -5 5 -10 10 -10 19 0 10 -18 -12 -24 -25 -6
-49 10 -33 22 15 11 14 42 -1 42 -8 0 -14 5 -14 12 0 6 -11 1 -24 -11 -14 -13
-29 -20 -35 -16 -6 3 -11 1 -11 -4 0 -6 -4 -11 -10 -11 -18 0 -10 18 10 25 12
4 17 11 13 18 -4 7 0 6 10 -2 14 -11 18 -11 23 3 9 25 -4 52 -18 38 -16 -16
-28 -15 -28 2 0 7 10 17 23 20 19 6 20 7 5 16 -10 7 -25 7 -41 1 -28 -11 -38
-6 -30 15 3 8 0 14 -7 14 -6 0 -9 -4 -6 -9 3 -5 -4 -11 -15 -14 l-21 -6 22
-30 c12 -17 17 -31 11 -31 -6 0 -11 5 -11 12 0 9 -3 9 -11 1 -8 -8 -22 -8 -50
2 -36 13 -39 13 -39 -3 0 -10 6 -24 13 -31 10 -11 9 -13 -6 -8 -16 6 -16 4 -2
-16 10 -16 11 -26 4 -37 -9 -12 -10 -11 -5 4 6 16 4 17 -9 6 -9 -7 -15 -8 -15
-2 0 5 -13 15 -30 20 -27 10 -29 13 -20 38 9 24 8 26 -9 21 -11 -3 -24 0 -29
7 -14 17 -10 43 6 42 8 0 19 7 25 16 9 13 7 21 -7 37 -16 18 -16 20 0 29 9 5
14 14 10 21 -11 17 -24 13 -31 -10 -6 -17 -9 -19 -16 -8 -13 21 -11 49 5 49
14 0 30 40 20 50 -3 3 -12 -3 -19 -14 -8 -10 -18 -15 -24 -12 -5 4 -12 2 -16
-4 -3 -5 -12 -10 -19 -10 -18 0 -14 44 5 52 10 4 15 17 14 37 -1 18 2 34 7 37
4 3 8 13 8 22 0 15 -2 15 -11 2 -8 -11 -12 -12 -16 -2 -2 6 -9 12 -15 12 -14
0 -38 26 -31 34 4 3 15 -2 25 -11 14 -13 21 -14 30 -5 9 9 8 12 -5 12 -9 0
-17 7 -17 15 0 8 -4 15 -10 15 -5 0 -10 11 -10 25 0 14 4 25 10 25 6 0 6 9 0
25 -11 28 4 62 30 70 12 4 63 94 138 246 2 6 -138 34 -265 54 -50 8 -58 17
-43 45 11 20 8 20 -138 20 l-149 0 -12 -40 c-8 -28 -17 -40 -31 -40 -15 0 -20
10 -25 58 -7 65 -21 107 -43 129 -8 8 -15 31 -16 51 l-1 37 -55 5 c-59 6 -104
25 -95 40 3 5 -3 18 -15 30 -26 26 -27 76 -1 85 23 7 44 66 61 170 6 39 15 83
20 98 5 16 6 35 3 43 -3 8 0 21 7 29 9 11 9 22 2 45 -6 16 -8 46 -5 65 5 31 3
37 -15 42 -18 4 -20 9 -11 24 12 24 3 59 -17 59 -8 0 -14 6 -14 14 0 8 -25 40
-55 71 -30 32 -55 67 -55 77 0 23 -49 54 -99 62 -20 3 -47 15 -58 26 -12 11
-24 20 -27 20 -3 0 -16 11 -30 25 -17 17 -32 55 -51 132 -15 59 -40 148 -56
197 -16 49 -30 108 -30 130 0 23 0 58 0 79 0 22 -5 40 -13 43 -7 3 -19 31 -26
62 -7 31 -17 61 -22 67 -4 5 -8 21 -8 36 0 15 -6 29 -12 31 -9 3 -13 39 -16
114 -1 60 -7 129 -12 154 -5 25 -9 75 -10 112 0 64 -18 140 -42 183 -6 11 -30
56 -53 100 -89 171 -140 235 -314 399 -22 22 -49 58 -59 80 -46 110 -113 236
-140 267 -16 19 -37 50 -47 69 -9 19 -26 44 -36 56 -10 11 -20 33 -23 50 -8
63 -61 170 -94 192 -31 19 -202 191 -202 202 0 4 -16 18 -35 31 -19 13 -35 30
-35 38 0 7 -13 39 -29 70 -41 82 -45 98 -24 104 13 3 13 5 3 6 -19 1 -45 41
-33 50 16 11 23 41 9 35 -9 -3 -19 7 -27 28 -7 18 -15 37 -17 41 -2 5 4 4 15
-2 11 -5 29 -8 40 -5 14 4 26 -2 37 -17 13 -20 16 -21 16 -6 0 10 4 15 10 12
6 -3 7 1 4 9 -4 11 2 19 17 25 13 5 18 10 10 10 -7 1 -11 7 -7 16 3 8 1 15 -4
15 -6 0 -10 -4 -10 -9 0 -14 -114 -1 -126 14 -13 17 -29 21 -19 5 3 -5 1 -10
-4 -10 -15 0 -13 31 3 53 8 10 20 15 30 11 12 -5 15 -2 10 10 -4 10 -1 16 7
16 11 0 11 3 -1 10 -12 8 -10 10 10 11 14 1 31 2 38 2 6 -1 12 3 12 8 0 5 -5
9 -12 9 -6 0 -8 3 -5 6 4 4 14 1 22 -6 13 -11 19 -10 35 7 10 12 25 23 32 26
8 2 9 8 4 13 -5 5 -11 4 -13 -3 -5 -14 -31 -17 -57 -7 -9 3 -14 10 -11 14 3 4
-4 10 -15 13 -11 3 -18 1 -14 -4 3 -5 1 -16 -4 -24 -7 -14 -12 -12 -34 10 -18
17 -24 32 -21 46 5 19 4 20 -16 10 -12 -7 -29 -11 -38 -9 -15 3 -15 5 -1 18
18 19 38 55 38 69 0 6 -7 11 -16 11 -11 0 -15 6 -11 20 3 11 1 20 -4 20 -13 0
-31 -40 -26 -60 5 -18 -27 -35 -45 -24 -14 9 -9 34 6 28 10 -4 12 2 10 23 -2
15 -1 22 2 15 10 -22 62 36 56 63 -3 17 -9 21 -23 18 -17 -5 -19 -2 -14 26 6
33 -5 40 -25 16 -9 -11 -7 -21 14 -48 20 -26 23 -36 14 -45 -15 -15 -31 -16
-23 -1 5 7 -4 9 -26 7 -29 -3 -34 0 -31 17 2 11 7 22 10 25 4 3 7 17 7 32 1
26 0 26 -17 11 -10 -9 -18 -25 -18 -35 0 -11 -4 -17 -9 -14 -5 3 -12 -1 -15
-10 -4 -12 -2 -15 9 -10 8 3 15 1 15 -4 0 -13 -16 -13 -41 1 -19 10 -20 9 -9
-11 6 -11 16 -18 22 -14 5 4 14 0 19 -7 14 -22 10 -56 -7 -63 -8 -3 -13 -10
-10 -15 4 -5 -2 -8 -11 -6 -10 2 -22 4 -26 4 -5 1 -5 5 -2 11 3 5 -3 20 -14
32 -23 24 -28 18 -9 -11 14 -23 4 -53 -17 -45 -20 8 -20 -29 0 -46 13 -11 13
-15 3 -21 -9 -6 -7 -9 9 -9 16 0 20 -5 16 -20 -4 -14 0 -20 10 -20 8 0 22 -3
31 -6 11 -4 17 2 22 21 6 24 8 25 17 10 7 -13 5 -20 -7 -27 -9 -5 -16 -16 -16
-23 0 -8 -3 -15 -7 -15 -17 0 -67 32 -80 50 -7 10 -29 24 -48 30 -19 6 -35 17
-35 25 0 7 -10 16 -22 20 -21 6 -20 8 12 15 19 5 38 6 42 4 5 -3 8 -1 8 4 0 5
10 13 23 16 20 6 21 7 4 17 -9 6 -26 8 -36 4 -10 -3 -24 1 -31 10 -7 8 -23 15
-36 15 -28 0 -32 18 -7 27 23 9 53 35 53 47 0 5 -8 3 -17 -5 -22 -18 -73 -25
-73 -10 0 6 5 11 11 11 5 0 7 4 4 10 -4 6 6 7 26 3 23 -4 30 -3 25 5 -4 7 -14
12 -22 12 -20 0 -29 27 -14 45 17 20 -5 84 -34 95 -12 5 -15 9 -6 9 18 1 23
71 5 71 -15 0 -55 43 -55 58 0 12 -12 16 -36 13 -18 -2 -28 50 -12 61 10 7 10
11 1 14 -7 3 -9 12 -6 21 4 11 2 14 -5 9 -11 -6 -45 5 -43 15 2 17 -14 49 -26
49 -8 0 -11 5 -7 12 5 7 2 9 -8 6 -15 -6 -39 15 -51 45 -3 9 -11 17 -17 17 -5
0 -10 9 -10 19 0 10 -7 22 -16 25 -23 9 -36 7 -29 -4 3 -6 -1 -13 -9 -16 -17
-6 -65 25 -66 43 0 7 -14 9 -42 6 -29 -4 -39 -3 -34 5 4 7 1 12 -6 13 -7 0 0
5 17 10 28 8 91 -5 105 -22 3 -3 13 2 24 12 18 17 17 18 -5 12 -14 -4 -20 -2
-16 5 4 5 1 13 -5 15 -7 3 -3 6 9 6 12 1 24 5 27 10 3 5 -10 7 -30 4 -46 -6
-84 4 -84 21 0 8 5 16 11 18 12 4 1 38 -12 38 -5 0 -9 -7 -9 -16 0 -9 -6 -14
-12 -11 -7 2 -12 11 -10 21 2 9 -1 16 -7 16 -13 0 -8 64 6 82 19 22 12 54 -11
54 -14 -1 -22 6 -24 22 -2 12 -8 22 -13 22 -6 0 -7 5 -4 11 4 5 -1 19 -11 30
-17 19 -18 19 -46 -8 -19 -18 -26 -33 -22 -46 5 -15 2 -18 -13 -13 -13 4 -26
-1 -38 -14 -10 -11 -23 -20 -29 -20 -5 0 7 16 28 35 36 32 38 37 31 72 -7 34
-9 36 -14 14 -4 -14 -12 -26 -18 -28 -7 -3 -9 3 -7 15 4 14 -4 23 -35 37 -46
20 -46 21 -55 -20 -7 -29 -7 -29 13 -11 12 11 24 16 28 13 3 -4 3 -7 -1 -7 -3
0 0 -13 9 -30 15 -29 9 -40 -11 -20 -8 8 -15 6 -23 -4 -11 -13 -10 -18 3 -31
20 -21 21 -45 0 -45 -8 0 -12 5 -9 10 3 6 -2 10 -12 10 -21 0 -28 47 -11 68 8
9 6 12 -6 12 -10 0 -24 6 -32 14 -16 17 -19 56 -4 56 6 0 10 -6 10 -14 0 -15
29 -30 39 -20 3 4 0 9 -6 11 -7 3 -13 11 -13 18 0 8 -8 18 -17 23 -14 8 -16
24 -15 88 3 120 13 179 30 179 6 0 14 3 18 8 4 4 -1 7 -11 7 -15 0 -17 5 -10
43 4 23 8 53 9 67 4 54 19 101 36 110 13 7 20 6 24 -7 4 -9 9 -13 13 -10 3 4
0 13 -6 21 -17 20 -61 1 -61 -26 0 -10 -4 -26 -10 -36 -5 -9 -15 -51 -21 -92
-7 -41 -13 -79 -14 -85 -1 -5 -3 -16 -3 -22 -1 -7 -7 -13 -13 -13 -8 0 -10 16
-6 53 5 40 4 48 -5 33 -6 -12 -8 -43 -4 -82 4 -35 4 -64 1 -64 -15 0 -107 54
-97 58 19 6 14 42 -5 42 -16 1 -15 3 4 19 19 16 20 20 7 25 -24 9 -36 7 -28
-6 4 -7 3 -8 -5 -4 -7 5 -9 20 -5 42 5 28 3 34 -10 34 -10 0 -15 4 -11 9 3 5
-2 16 -10 24 -19 20 -19 23 4 23 14 0 26 -13 37 -41 10 -22 19 -42 20 -44 2
-2 10 3 18 12 14 13 14 16 1 27 -17 14 -21 35 -5 25 6 -3 10 3 10 14 0 22 -19
28 -35 12 -6 -6 -11 7 -13 37 -3 49 -18 68 -39 50 -9 -7 -13 -7 -13 1 0 6 -7
11 -15 11 -14 0 -19 -14 -18 -47 1 -18 -10 -16 -28 5 -9 9 -25 23 -35 30 -13
9 -15 14 -6 18 22 10 13 23 -20 26 -28 2 -33 7 -31 26 2 14 -2 22 -10 20 -15
-3 -67 45 -67 62 0 7 -7 10 -15 6 -9 -3 -15 0 -15 10 0 8 -4 13 -10 9 -5 -3
-7 -12 -4 -19 9 -22 -16 -30 -31 -10 -7 11 -11 22 -9 25 2 4 -4 5 -15 2 -10
-3 -22 1 -27 8 -5 9 -2 11 9 6 27 -10 29 11 6 53 -23 40 -33 48 -43 31 -3 -5
2 -12 11 -15 15 -6 15 -8 3 -16 -11 -7 -18 -3 -27 13 -6 12 -9 25 -7 28 2 3
-5 14 -15 23 -13 12 -20 14 -23 5z m975 -1396 c-3 -9 4 -13 22 -13 14 0 24 -4
21 -9 -9 -13 19 -32 38 -25 17 7 19 4 10 -20 -4 -11 -11 -13 -29 -6 -15 6 -27
6 -30 -1 -4 -5 -11 -7 -16 -4 -5 4 -16 0 -24 -9 -21 -20 -19 -29 4 -17 14 8
21 5 31 -14 7 -14 19 -25 27 -25 7 0 13 -5 13 -11 0 -6 10 -8 23 -5 12 3 16 3
10 0 -7 -3 -13 -15 -13 -27 0 -19 3 -18 21 10 12 18 25 30 30 27 6 -3 1 -14
-11 -24 -15 -13 -18 -20 -9 -26 8 -5 4 -12 -12 -25 -28 -21 -63 -25 -56 -6 2
6 10 11 16 10 16 -4 14 3 -13 31 -23 26 -43 36 -31 16 3 -5 0 -8 -7 -6 -7 3
-26 7 -41 11 -19 4 -27 11 -24 19 3 8 -1 13 -11 12 -12 -1 -18 8 -20 28 -3 27
-2 29 13 16 16 -13 17 -11 11 28 -3 24 -2 40 3 37 5 -3 17 -2 26 1 16 6 16 8
1 16 -23 13 -20 23 8 23 15 0 22 -5 19 -12z m-1637 -4110 c-3 -52 -1 -60 23
-80 30 -26 31 -26 51 -12 12 8 11 9 -6 5 -13 -4 -21 -2 -21 6 0 7 -4 21 -8 31
-4 10 -3 17 4 17 6 0 8 7 4 17 -4 11 -3 14 5 9 7 -4 12 -16 12 -27 0 -10 5
-19 10 -19 6 0 10 5 10 10 0 6 7 10 15 10 18 0 21 -63 5 -104 -8 -22 -13 -24
-33 -17 -13 5 -34 7 -48 4 -16 -3 -30 1 -38 11 -8 9 -23 17 -35 17 -19 1 -19
2 -2 6 32 8 48 29 32 42 -7 6 -16 8 -19 4 -4 -3 -7 -1 -7 5 0 7 7 12 15 12 8
0 15 8 15 19 0 14 -6 17 -25 13 -15 -2 -25 0 -25 7 0 10 20 15 48 12 6 -1 12
3 12 9 0 5 -12 11 -27 11 -17 1 -21 3 -10 6 9 2 17 11 17 19 0 8 7 14 15 14
11 0 13 -12 11 -57z m87 -182 c15 -12 11 -61 -6 -73 -12 -7 -27 -107 -17 -113
4 -3 5 -16 3 -30 -4 -20 -8 -23 -24 -14 -12 6 -19 6 -19 0 0 -5 5 -11 11 -13
19 -6 22 -73 3 -89 -13 -10 -19 -10 -36 0 -28 17 -34 7 -14 -24 15 -23 65 -38
51 -15 -3 5 -12 7 -20 3 -8 -3 -15 0 -15 6 0 6 11 11 24 11 22 0 27 -12 16
-40 -1 -3 -2 -9 -1 -13 1 -4 -8 -3 -20 3 -11 7 -23 9 -27 6 -3 -3 0 -6 6 -6 9
0 9 -4 1 -19 -8 -11 -20 -17 -33 -14 -20 4 -20 4 -3 -10 24 -20 21 -28 -7 -21
-14 3 -27 1 -31 -7 -5 -7 -4 -10 1 -6 5 3 20 -1 34 -10 14 -8 17 -12 8 -9 -12
3 -15 1 -11 -10 3 -7 15 -14 26 -14 21 0 21 0 -1 -16 -12 -8 -20 -20 -16 -25
10 -17 -5 -59 -21 -59 -8 0 -15 -5 -15 -12 0 -9 -3 -9 -12 0 -7 7 -27 12 -45
12 -31 0 -32 1 -23 26 15 38 12 46 -11 39 -15 -5 -19 -4 -14 5 5 8 1 11 -11 8
-11 -2 -18 -11 -16 -21 2 -13 -4 -17 -25 -17 -23 0 -30 6 -39 36 -10 29 -8 41
7 72 11 20 19 48 18 62 0 14 -3 19 -6 13 -10 -25 -25 -13 -18 14 7 28 23 45
35 38 4 -2 6 4 6 13 0 71 5 122 12 122 12 0 9 -94 -3 -102 -6 -5 -2 -8 8 -8
15 0 16 -4 7 -20 -10 -18 -8 -19 19 -14 27 6 29 4 24 -17 -3 -14 -1 -19 4 -13
4 6 17 14 28 17 20 7 20 7 1 -8 -14 -11 -16 -15 -5 -15 22 0 42 17 35 28 -3 6
-1 14 5 17 6 4 8 18 5 30 -4 14 -1 25 6 27 17 6 0 28 -22 28 -16 0 -18 5 -13
34 5 33 -9 56 -23 35 -3 -6 -1 -15 5 -19 9 -5 8 -12 -6 -25 -17 -18 -18 -18
-21 1 -2 10 -8 23 -13 29 -18 19 -10 45 14 42 13 -1 21 3 20 11 -2 6 1 12 6
12 5 0 7 8 4 19 -8 33 18 36 43 5 21 -26 23 -27 24 -8 0 11 -5 25 -12 32 -9 9
-7 13 5 18 9 3 17 15 17 26 0 12 4 17 12 12 8 -5 9 -2 5 9 -7 19 17 24 28 7 3
-5 11 -10 16 -10 6 0 7 5 4 10 -20 33 35 49 68 21z m239 -27 c-2 -5 -14 -8
-28 -7 -28 2 -30 -4 -7 -29 15 -17 15 -18 0 -18 -10 0 -17 3 -17 8 0 4 -9 13
-20 20 -17 11 -20 10 -20 -8 0 -16 9 -21 50 -26 54 -7 57 -10 35 -40 -13 -18
-14 -18 -15 -1 0 10 -4 16 -9 13 -5 -4 -12 0 -14 6 -4 8 -8 4 -12 -9 -4 -13
-12 -20 -17 -17 -5 3 -7 12 -4 20 3 8 2 14 -3 14 -18 0 -20 -61 -4 -102 12
-31 14 -43 5 -46 -7 -2 -12 -9 -12 -15 0 -8 4 -7 12 1 15 15 32 16 23 2 -3 -5
1 -10 9 -10 9 0 15 6 14 13 -2 6 3 11 10 9 17 -3 11 29 -8 45 -11 9 -12 12 -2
13 7 0 10 5 6 11 -5 8 -9 8 -14 -1 -6 -9 -13 -9 -29 -1 -31 17 -17 31 27 26
20 -2 40 -4 43 -4 13 -2 -4 -96 -21 -120 -11 -17 -20 -51 -23 -95 -3 -42 -1
-63 4 -55 7 11 9 10 9 -3 0 -10 -5 -18 -11 -18 -6 0 -9 -20 -9 -47 1 -27 -3
-86 -9 -133 -6 -47 -11 -111 -12 -143 -2 -58 -14 -81 -30 -56 -7 11 -9 9 -10
-6 0 -14 -3 -11 -10 9 -9 33 -3 49 11 26 5 -8 12 -11 17 -7 9 10 -10 42 -25
42 -12 0 -62 67 -62 83 0 5 9 12 20 15 11 3 20 1 20 -5 0 -5 4 -6 10 -3 5 3 7
0 4 -8 -3 -10 4 -16 21 -19 24 -5 26 -3 20 20 -3 13 -14 32 -23 41 -10 9 -13
13 -8 9 15 -12 23 -9 23 7 0 8 -4 15 -9 15 -4 0 -8 5 -8 11 0 6 7 9 15 6 8 -4
17 -2 20 3 4 6 1 10 -4 10 -6 0 -11 9 -11 20 0 11 5 20 10 20 14 0 12 53 -2
73 -11 13 -16 14 -29 4 -27 -20 -37 -50 -32 -94 3 -33 1 -43 -11 -43 -8 0 -17
8 -19 18 -3 10 -5 7 -6 -10 -1 -16 6 -31 17 -37 14 -9 15 -12 3 -20 -12 -7
-19 -1 -32 30 -10 21 -23 39 -29 39 -5 0 -10 9 -10 20 0 21 24 28 35 10 3 -5
12 -10 18 -10 8 0 7 3 -2 9 -11 7 -10 10 4 18 12 7 14 13 6 17 -6 4 -11 4 -11
-1 0 -4 -11 -8 -24 -8 -15 0 -24 6 -23 15 0 8 -3 26 -6 40 -4 14 -4 19 -1 13
12 -28 24 -11 19 28 -3 22 -2 46 2 52 8 13 9 19 11 60 2 24 5 27 22 22 13 -4
20 -2 20 7 0 7 10 2 23 -12 12 -14 30 -24 40 -22 24 5 22 22 -3 22 -11 0 -20
4 -20 9 0 4 -12 20 -26 34 -24 24 -25 28 -10 42 19 19 19 21 6 46 -8 15 -7 19
5 19 21 0 19 30 -2 31 -14 0 -13 2 5 9 12 5 22 17 22 27 1 24 39 93 40 71 0
-9 5 -20 12 -24 7 -5 8 -3 3 6 -4 7 -2 16 6 21 11 7 11 9 1 9 -7 0 -11 4 -7
10 7 11 71 -23 67 -36z m805 -487 c3 -5 1 -7 -4 -4 -6 4 -14 0 -17 -9 -7 -18
0 -34 15 -34 6 0 8 4 4 9 -8 13 10 22 29 15 14 -5 14 -8 1 -21 -9 -8 -13 -18
-10 -23 3 -4 -4 -10 -15 -13 -10 -3 -21 0 -23 6 -4 12 -27 1 -27 -13 0 -26 73
-9 76 18 3 28 6 24 19 -22 7 -26 11 -55 8 -62 -3 -8 0 -14 6 -14 6 0 11 5 11
10 0 6 5 10 11 10 7 0 9 -10 7 -25 -3 -14 -1 -25 3 -25 5 0 9 -5 9 -11 0 -5
-6 -7 -12 -3 -10 6 -10 5 -2 -7 7 -8 18 -33 25 -56 6 -24 17 -43 23 -43 12 0
42 -40 38 -52 -1 -5 2 -8 7 -8 5 0 12 -8 15 -17 5 -13 0 -11 -18 6 l-25 24
-11 -28 c-12 -33 -7 -43 15 -25 18 15 30 7 21 -15 -3 -9 -11 -13 -16 -10 -6 4
-21 4 -33 1 -18 -4 -22 -13 -23 -51 -1 -25 3 -45 8 -45 6 0 8 7 4 15 -3 8 -1
15 4 15 14 0 12 -21 -5 -53 -8 -16 -16 -38 -17 -50 -2 -12 -7 -28 -11 -34 -10
-16 0 -33 19 -33 26 0 14 -18 -33 -49 -46 -31 -46 -31 -61 -10 -12 17 -21 20
-51 14 l-36 -6 29 16 c15 8 32 12 37 9 5 -3 9 -1 9 4 0 6 16 13 35 16 26 5 35
12 35 26 0 11 -7 20 -15 20 -9 0 -12 6 -9 15 4 8 2 15 -4 15 -15 0 -22 -26
-10 -38 7 -7 -3 -9 -32 -5 -30 4 -41 3 -36 -5 8 -13 -31 -42 -56 -42 -11 0
-15 -5 -12 -15 4 -10 0 -15 -12 -13 -41 3 -53 -2 -48 -19 5 -15 3 -15 -10 1
-22 28 -20 33 15 40 17 3 29 11 27 17 -2 6 -8 9 -13 7 -6 -2 -9 -6 -7 -10 1
-5 -8 -8 -20 -7 -13 0 -17 3 -10 6 6 2 12 9 12 15 0 5 9 17 20 26 27 23 39 82
16 82 -11 0 -16 -9 -16 -26 0 -22 -2 -25 -15 -14 -22 18 -18 39 10 52 19 8 31
8 56 -5 32 -15 32 -15 10 -28 -11 -8 -21 -17 -21 -22 0 -4 5 -5 10 -2 6 3 10
2 10 -3 0 -6 7 -13 16 -16 15 -6 15 -4 3 11 -13 15 -12 16 6 9 11 -5 30 -11
43 -13 17 -4 21 -2 16 11 -4 11 -1 16 13 16 32 0 53 23 58 65 3 22 7 51 8 65
2 14 2 19 0 13 -6 -19 -23 -16 -23 4 0 10 -12 28 -27 40 -28 25 -44 23 -24 -1
7 -8 9 -21 5 -27 -5 -9 -2 -10 9 -6 11 4 21 -1 28 -14 11 -21 6 -33 -14 -35
-7 0 -20 -2 -30 -2 -11 -1 -15 -7 -11 -13 4 -7 21 -9 43 -5 l36 5 -25 -19
c-14 -11 -28 -20 -32 -20 -3 0 -4 -9 -1 -20 4 -14 0 -20 -11 -20 -12 0 -14 5
-6 25 12 31 -6 44 -26 19 -14 -17 -15 -17 -10 -1 3 9 2 17 -3 17 -5 0 -12 10
-16 23 -6 20 -7 20 -16 -10 -10 -35 -15 -38 -39 -23 -13 8 -13 10 2 10 10 0
19 11 23 30 8 35 6 46 -6 43 -14 -4 -11 7 6 23 8 9 15 11 15 5 0 -6 5 -11 12
-11 8 0 6 6 -5 17 -14 14 -20 15 -41 4 -14 -8 -22 -19 -19 -27 3 -8 -1 -14
-10 -14 -10 0 -13 7 -10 24 3 13 0 27 -6 30 -34 21 12 81 54 70 14 -3 25 -9
26 -13 0 -3 2 -16 3 -28 2 -13 6 -26 11 -30 4 -5 4 3 0 16 -5 16 -4 21 4 17
17 -11 13 10 -5 25 -20 16 -14 106 7 120 12 7 12 9 0 9 -8 0 -11 6 -7 16 4 9
1 24 -6 32 -8 10 -8 13 -2 9 7 -4 19 4 28 18 14 21 14 26 3 31 -9 3 -15 20
-15 45 -1 22 3 37 8 34 13 -8 21 26 10 40 -9 11 -7 12 10 8 11 -3 23 -10 27
-16z m-255 -166 c-14 -37 -14 -151 -1 -151 6 0 8 7 5 16 -4 10 -1 14 6 11 15
-4 17 -69 3 -65 -6 2 -9 9 -7 16 2 6 -1 12 -6 12 -13 0 -24 -29 -16 -41 3 -6
1 -16 -6 -24 -12 -15 3 -31 20 -20 6 3 10 1 10 -4 0 -6 -7 -11 -15 -11 -8 0
-15 -4 -15 -10 0 -5 8 -10 18 -10 10 0 22 -4 28 -9 5 -6 13 -1 21 15 9 19 8
24 -3 24 -19 0 -18 10 4 26 12 9 14 16 7 23 -18 18 -6 78 17 84 18 5 19 2 14
-31 -6 -36 -6 -37 8 -12 9 14 15 19 16 12 0 -7 -10 -26 -21 -41 -12 -16 -19
-33 -16 -38 4 -6 2 -26 -4 -46 -8 -28 -15 -37 -32 -37 l-22 -1 23 -18 c26 -23
28 -37 5 -45 -12 -5 -14 -9 -5 -18 16 -16 16 -61 0 -53 -7 4 -6 1 3 -7 18 -16
32 -48 20 -48 -5 0 -9 -15 -9 -34 0 -19 -3 -39 -7 -45 -8 -14 -65 -14 -65 -1
0 6 11 10 25 10 26 0 33 14 14 26 -6 3 -15 0 -20 -7 -6 -10 -9 -7 -9 11 -1 24
-1 24 -15 6 -12 -16 -17 -17 -30 -6 -8 7 -15 19 -15 27 0 13 -3 13 -15 3 -10
-9 -15 -9 -15 -1 0 6 -5 10 -12 9 -6 -2 -14 6 -16 17 -2 11 -10 25 -18 31 -10
8 -12 18 -6 35 8 22 9 21 15 -9 7 -33 30 -46 26 -14 -1 9 0 19 1 22 3 9 7 34
14 90 7 52 6 54 -9 33 -8 -12 -16 -35 -18 -52 -2 -33 -22 -43 -21 -11 2 73 6
90 22 106 9 10 17 34 18 53 2 68 4 81 15 81 9 0 10 -20 5 -69 -6 -66 -5 -69
14 -64 12 3 17 10 13 17 -10 15 -13 36 -5 36 4 0 8 23 10 52 1 28 9 62 17 75
9 13 13 34 11 48 -3 14 0 25 5 25 5 0 9 13 9 29 0 16 3 38 8 48 11 29 15 -44
4 -76z m-2064 -191 c6 -16 7 -30 3 -30 -5 0 -11 -11 -13 -25 -7 -35 8 -31 21
5 5 17 15 30 20 30 14 0 14 -2 -1 -37 -6 -15 -12 -35 -13 -43 -3 -20 22 -43
30 -30 4 6 11 8 16 5 12 -8 12 -45 -1 -45 -5 0 -10 -7 -10 -15 0 -8 -4 -15
-10 -15 -5 0 -10 5 -10 10 0 6 -5 10 -11 10 -6 0 -9 -6 -6 -14 3 -8 1 -17 -6
-20 -7 -2 -3 -5 8 -5 16 -1 20 -8 20 -36 0 -19 -6 -40 -13 -47 -14 -14 -16
-32 -3 -24 5 3 12 -1 15 -10 5 -12 2 -15 -10 -10 -10 4 -22 -1 -30 -11 -7 -10
-14 -13 -14 -6 0 6 -9 14 -19 18 -30 9 -33 54 -5 84 17 19 20 28 12 38 -7 9
-7 13 1 13 6 0 11 7 11 15 0 26 -15 16 -31 -22 l-16 -36 -16 47 -16 47 40 56
c21 31 39 61 38 67 0 6 -3 5 -6 -1 -2 -7 -11 -13 -19 -13 -12 0 -12 4 -4 20 6
11 8 26 4 32 -5 7 -2 9 8 5 12 -4 14 -1 10 15 -8 32 14 13 26 -22z m-226 -46
c-2 -10 -9 -22 -15 -26 -13 -9 -3 -11 30 -8 19 1 22 -3 19 -27 -2 -15 -1 -20
1 -11 6 25 54 61 66 49 12 -12 -1 -33 -16 -25 -7 4 -2 -3 11 -15 24 -23 29
-37 10 -25 -8 5 -9 2 -5 -9 4 -11 -1 -20 -13 -27 -11 -6 -20 -16 -20 -22 0 -7
5 -6 15 2 13 11 15 8 16 -14 2 -38 3 -44 12 -52 13 -14 8 -54 -8 -54 -8 0 -15
-4 -15 -10 0 -5 4 -10 10 -10 16 0 7 -22 -18 -48 -13 -13 -21 -30 -18 -38 3
-8 2 -14 -3 -14 -9 0 -27 39 -37 84 -6 25 -4 28 10 23 10 -4 16 -1 16 8 0 8
-3 14 -8 13 -11 -4 -13 9 -6 36 3 13 14 26 25 29 10 3 19 11 19 17 0 10 -3 10
-14 1 -11 -10 -21 -9 -45 4 -17 8 -31 20 -31 25 0 5 -10 9 -22 7 -20 -2 -22 2
-20 33 2 19 8 51 14 70 6 19 12 41 14 48 6 21 29 7 26 -14z m698 -73 c-6 -23
-15 -41 -19 -41 -8 0 -25 -56 -22 -72 0 -5 -4 -8 -10 -8 -5 0 -7 -5 -3 -11 3
-6 1 -15 -6 -19 -6 -4 -13 -24 -15 -45 -2 -21 -11 -45 -19 -53 -14 -14 -17
-14 -33 -1 -10 9 -33 15 -53 13 -19 -1 -41 3 -49 9 -12 10 -13 9 -8 -6 6 -15
3 -17 -13 -12 -16 5 -20 2 -20 -14 0 -12 -4 -21 -9 -21 -12 0 -21 52 -14 78 7
28 -24 62 -37 41 -5 -7 -13 -10 -17 -5 -4 5 -3 11 3 13 6 2 9 15 6 28 -4 21
-1 25 19 24 13 0 18 -3 12 -6 -20 -7 -16 -35 5 -31 9 2 17 10 17 18 0 8 9 16
20 19 11 2 24 9 30 16 5 7 24 21 40 31 l30 19 -17 -27 c-26 -40 -22 -55 7 -28
14 13 25 18 25 12 0 -6 -5 -14 -10 -17 -6 -4 -8 -16 -5 -28 5 -16 4 -18 -3 -8
-8 11 -12 10 -21 -5 -10 -18 -10 -18 -11 -1 0 10 -5 15 -10 12 -6 -4 -8 -11
-4 -16 3 -5 0 -8 -8 -7 -9 2 -13 -8 -12 -32 1 -22 5 -34 13 -32 7 1 10 -2 6
-8 -3 -5 -1 -10 4 -10 6 0 11 4 11 8 0 5 11 22 24 37 13 15 33 45 43 66 10 22
22 39 26 39 4 0 3 -10 -4 -21 -6 -13 -7 -19 -1 -15 6 3 12 2 14 -4 2 -6 8 -6
18 0 13 8 12 10 -2 10 -10 0 -18 5 -18 10 0 6 5 10 12 10 9 0 9 3 1 11 -8 8
-7 23 4 55 14 42 32 58 34 32 0 -8 3 -7 6 2 3 8 15 26 27 38 26 30 32 12 16
-47z m440 -113 c47 -56 78 -104 70 -106 -6 -2 -17 -17 -25 -33 -21 -39 -36
-37 -74 11 l-33 41 26 20 c14 11 26 25 26 31 0 7 -5 7 -14 -1 -17 -15 -113 6
-120 26 -3 8 -2 12 3 9 13 -8 110 -14 109 -7 -2 24 15 29 32 9z m-606 -147
c13 -5 16 -10 8 -15 -6 -3 -8 -14 -5 -23 4 -9 -1 -21 -11 -29 -10 -7 -15 -17
-12 -23 4 -5 -2 -18 -12 -28 -27 -26 -37 -71 -16 -75 14 -3 13 -6 -4 -25 -10
-13 -22 -20 -25 -16 -12 11 -38 -20 -32 -38 4 -11 2 -19 -2 -19 -18 0 -33 25
-33 55 0 17 -4 35 -9 41 -5 5 -12 33 -15 63 -6 46 -5 53 8 48 12 -5 15 0 13
16 -2 17 6 24 36 34 21 7 45 20 53 28 17 16 29 18 58 6z m858 -145 c24 -13 26
-12 21 2 -4 12 -1 11 10 -3 14 -18 14 -20 0 -24 -13 -2 -14 -5 -2 -12 10 -6 6
-9 -13 -9 -16 0 -28 -4 -28 -10 0 -5 13 -10 29 -10 16 0 34 -7 41 -15 7 -8 18
-15 24 -15 6 0 4 5 -4 10 -11 7 -12 12 -4 20 8 8 21 5 48 -10 36 -22 42 -49 6
-30 -26 14 -33 12 -18 -4 7 -8 16 -12 21 -9 4 2 7 0 7 -5 0 -13 35 -21 50 -12
9 6 8 9 -6 13 -17 4 -17 5 2 6 11 0 29 -7 38 -18 15 -17 15 -19 1 -25 -9 -3
-14 -10 -11 -14 3 -5 -6 -14 -19 -20 -20 -9 -33 -7 -75 15 -27 14 -50 29 -50
33 0 4 10 12 23 18 20 11 20 12 2 11 -41 -2 -54 1 -51 14 1 6 1 9 -1 5 -10
-17 -52 12 -72 51 -11 19 -11 25 0 32 10 6 11 9 2 9 -7 0 -13 5 -13 10 0 13
10 13 42 -4z m-1184 -50 c11 -4 25 -5 32 -4 7 2 15 -3 18 -11 3 -8 0 -11 -7
-7 -6 4 -11 2 -11 -4 0 -6 -4 -8 -10 -5 -26 16 -5 -16 36 -54 25 -24 44 -45
42 -47 -11 -10 -46 11 -56 34 -9 24 -10 21 -6 -22 4 -46 3 -48 -11 -30 -8 10
-15 14 -15 7 0 -6 -10 -13 -22 -15 -14 -2 -25 -13 -29 -28 -4 -16 -7 -19 -8
-7 -1 9 -5 17 -10 17 -8 0 -9 21 -2 105 1 17 5 24 8 18 7 -18 23 -16 23 2 0
14 -12 19 -32 16 -5 0 -8 6 -8 15 0 12 7 15 26 11 18 -3 22 -1 15 6 -6 6 -11
20 -10 32 0 19 1 19 9 -2 5 -12 18 -24 28 -27z m5893 -131 c4 -17 7 -49 8 -73
1 -31 8 -50 26 -68 13 -13 22 -30 19 -38 -3 -8 -1 -17 5 -21 6 -3 11 -22 11
-41 0 -26 -3 -33 -12 -28 -10 6 -10 4 -2 -7 7 -8 15 -29 19 -47 6 -29 4 -33
-12 -30 -12 2 -18 -3 -18 -17 0 -11 -4 -24 -10 -28 -5 -5 0 -5 13 -2 13 4 22
2 22 -5 0 -6 -4 -8 -10 -5 -5 3 -10 1 -10 -6 0 -8 -5 -8 -17 3 -10 8 -29 15
-43 16 -23 1 -23 0 -8 -12 10 -7 14 -16 10 -20 -4 -4 -2 -7 3 -6 25 5 46 -1
39 -12 -5 -8 0 -9 14 -6 12 4 22 3 22 -2 0 -14 -39 -18 -44 -4 -3 8 -10 14
-15 14 -6 0 -8 -6 -5 -14 4 -10 -1 -15 -13 -15 -10 0 -39 -2 -65 -6 l-48 -6 0
151 c0 91 -4 149 -9 145 -14 -8 9 191 25 217 2 4 26 6 52 5 43 -2 47 -4 53
-32z m-1797 -91 c12 -5 16 -20 16 -60 0 -42 4 -55 19 -64 34 -18 41 -12 41 40
0 56 -1 55 35 38 24 -11 25 -14 25 -109 0 -112 10 -101 -105 -118 -45 -7 -62
-6 -70 4 -17 21 -133 43 -255 48 l-115 5 -2 86 -2 85 37 6 c20 3 62 10 93 16
31 5 85 12 120 16 35 3 66 7 68 9 7 6 78 5 95 -2z m-672 -177 l3 -94 -135 -21
c-197 -32 -180 -39 -180 68 0 104 -2 102 110 114 99 11 145 18 149 22 2 2 15
4 27 4 22 0 23 -4 26 -93z m1571 -17 c19 -17 47 -164 34 -176 -10 -10 -52 4
-80 27 -25 19 -27 25 -27 105 l0 84 28 -12 c15 -6 35 -19 45 -28z m-429 -475
c27 -8 55 -20 63 -27 9 -7 39 -11 72 -10 47 1 64 -3 104 -28 46 -29 47 -31 47
-81 0 -29 8 -69 21 -96 15 -33 22 -72 25 -150 5 -114 8 -127 31 -119 21 8 43
-11 43 -38 1 -19 2 -19 11 -3 5 9 19 17 29 17 11 0 20 4 20 9 0 12 -42 39 -73
46 -21 6 -25 14 -31 58 -3 29 -6 73 -6 99 0 42 3 48 30 60 21 9 30 20 30 35 0
27 25 31 39 5 5 -9 12 -34 16 -55 6 -30 4 -37 -9 -37 -9 0 -16 -4 -16 -10 0
-14 13 -13 29 3 10 10 16 7 31 -13 11 -14 20 -33 20 -43 0 -10 5 -28 12 -40 6
-12 13 -74 14 -137 3 -116 10 -193 20 -214 6 -11 -18 16 -56 66 -22 28 -26 43
-10 33 6 -3 10 -1 10 5 0 7 -8 9 -19 5 -15 -4 -26 3 -46 32 l-26 38 7 -40 c4
-22 11 -45 16 -52 5 -7 6 -18 2 -25 -5 -7 -9 -15 -10 -18 0 -3 -4 -13 -9 -23
-7 -16 -8 -16 -19 -1 -7 9 -24 18 -38 19 -21 3 -25 0 -21 -19 3 -16 0 -13 -13
9 -9 16 -23 35 -30 43 -8 7 -14 18 -14 24 0 6 -3 8 -7 5 -3 -4 -12 1 -20 11
-12 16 -13 15 -6 -3 6 -18 5 -19 -10 -6 -15 12 -19 12 -32 -5 -8 -10 -15 -25
-15 -31 0 -14 -34 -24 -64 -20 -10 1 -21 -4 -23 -10 -3 -7 3 -13 13 -13 9 0
14 -3 10 -7 -4 -4 -23 -6 -42 -4 -26 2 -34 -1 -34 -13 0 -19 11 -21 27 -5 12
12 53 3 53 -12 0 -6 -5 -7 -12 -3 -7 5 -9 2 -5 -9 3 -9 1 -17 -5 -19 -20 -7 0
-38 24 -38 18 0 20 -2 9 -9 -10 -6 -22 -5 -35 5 -27 19 -36 18 -30 -3 2 -10
-1 -7 -8 6 -10 20 -9 25 7 37 10 8 16 17 12 21 -4 3 -15 -1 -25 -10 -10 -10
-22 -14 -26 -10 -4 5 -7 4 -6 -2 7 -33 -1 -45 -31 -45 -16 0 -28 4 -25 9 3 5
-8 11 -24 15 -17 3 -30 12 -30 21 0 8 -11 17 -24 21 -16 4 -23 11 -19 20 7 19
-26 56 -41 47 -6 -4 -2 6 8 22 11 17 13 25 5 19 -8 -6 -24 -15 -35 -18 -17 -5
-22 -3 -20 10 0 9 -5 19 -13 22 -9 3 -12 0 -9 -10 5 -11 -1 -13 -23 -10 -24 4
-27 7 -18 19 9 10 9 17 1 25 -16 16 -15 28 3 28 8 0 15 -9 15 -20 0 -39 17
-20 18 21 1 29 -2 39 -11 36 -6 -2 -11 -10 -9 -16 1 -6 -4 -11 -11 -11 -14 0
-57 36 -57 48 0 4 46 8 101 9 58 1 105 6 108 12 4 6 12 7 21 1 8 -6 25 -10 38
-10 17 0 22 6 22 28 0 61 -8 70 -66 76 -30 3 -79 9 -109 12 -43 5 -55 3 -55
-8 0 -12 -62 -14 -397 -12 -219 1 -442 -1 -496 -5 -55 -3 -101 -3 -104 2 -2 4
2 8 9 9 7 0 24 3 38 4 87 12 227 19 237 12 6 -5 13 -5 15 1 3 12 231 24 428
23 161 -1 195 6 195 38 0 15 -5 24 -12 23 -8 -2 -13 7 -13 20 0 23 1 23 73 16
143 -14 251 -19 243 -12 -4 4 -26 14 -48 23 -42 15 -63 40 -34 40 9 0 16 4 16
10 0 6 -24 7 -62 3 -60 -6 -62 -5 -48 12 14 17 11 18 -84 11 -55 -3 -102 -8
-104 -11 -3 -2 1 -11 8 -20 11 -13 5 -15 -48 -15 -57 0 -85 -11 -62 -25 5 -3
10 -19 10 -36 0 -22 -5 -29 -19 -29 -26 0 -172 247 -166 280 6 30 3 29 77 36
l65 6 6 -47 c4 -26 5 -51 2 -55 -3 -4 2 -10 10 -14 9 -3 16 -19 16 -38 1 -25
3 -27 6 -10 3 14 11 22 21 21 9 -2 86 3 170 11 176 16 171 13 181 115 6 57 8
60 36 66 17 4 30 7 30 8 0 0 22 -6 49 -14z m-1903 -112 c-1 -60 -1 -115 0
-124 0 -19 18 -22 189 -40 58 -5 137 -14 175 -19 39 -5 75 -10 81 -10 12 0 29
79 25 118 -2 14 3 22 12 22 12 0 15 -16 15 -80 l0 -80 -87 0 c-48 0 -91 4 -96
9 -6 5 -48 12 -95 15 l-85 7 0 -129 0 -130 70 -6 c79 -7 113 -26 47 -26 -35 0
-42 -3 -42 -20 0 -20 4 -20 113 -14 61 3 161 9 222 13 95 7 111 6 122 -8 11
-15 12 -15 18 0 4 11 24 19 64 23 31 4 68 14 81 23 27 19 129 24 147 6 9 -7
24 -8 50 -2 21 5 54 9 74 9 31 0 37 -4 41 -24 8 -39 -6 -53 -35 -37 -21 11
-30 11 -58 -3 -18 -9 -35 -14 -37 -11 -3 3 0 5 6 5 6 0 9 7 5 15 -14 39 -71
-45 -74 -110 0 -11 -3 -14 -6 -7 -6 16 -23 15 -23 -2 0 -21 -77 -30 -96 -11
-21 20 -27 19 -19 -4 3 -12 0 -21 -10 -25 -8 -3 -15 -12 -15 -20 0 -17 -37
-28 -44 -12 -2 6 -5 3 -5 -6 -1 -22 -15 -23 -34 -3 -29 29 -65 29 -109 0 -27
-18 -43 -24 -46 -16 -2 6 -12 11 -22 11 -10 0 -22 5 -25 10 -3 6 -14 10 -24
10 -10 0 -24 7 -31 15 -15 18 -46 4 -55 -25 -3 -11 -12 -19 -18 -17 -7 1 -11
-7 -9 -20 3 -24 -21 -33 -34 -12 -4 8 -9 7 -15 -2 -6 -11 -9 -10 -15 4 -3 9
-10 17 -16 17 -5 0 -6 -5 -2 -11 4 -7 -3 -6 -17 2 -13 7 -28 12 -34 10 -37
-11 -68 -15 -126 -13 l-66 2 5 -55 4 -55 -45 0 c-40 0 -45 -2 -40 -19 4 -16
11 -18 39 -14 18 3 41 2 51 -2 35 -14 113 -13 128 1 7 8 32 14 55 14 36 0 41
-3 36 -17 -6 -17 -5 -17 8 0 20 26 92 18 88 -9 -2 -11 -12 -27 -23 -36 -11
-10 -18 -22 -14 -28 3 -5 -1 -10 -9 -10 -8 0 -18 5 -21 10 -9 15 -35 12 -29
-3 6 -16 -16 -45 -36 -47 -8 -2 -30 -2 -49 -1 -29 1 -33 4 -29 24 4 21 1 23
-21 20 -14 -2 -73 -5 -131 -6 l-105 -2 -10 -80 -10 -80 -77 -3 c-67 -2 -77 -1
-72 13 5 11 2 14 -10 9 -9 -4 -16 -1 -16 6 0 9 -5 9 -17 -3 -15 -13 -21 -13
-35 -3 -10 7 -18 23 -18 34 0 17 8 22 55 27 59 8 97 28 80 43 -5 5 -71 27
-145 49 -74 23 -169 52 -210 65 -62 20 -85 22 -129 16 -30 -5 -57 -6 -59 -3
-3 3 -1 54 6 113 17 153 16 173 -8 179 -24 6 -22 22 6 37 29 17 32 23 39 110
4 45 9 90 12 101 2 11 8 57 12 103 5 45 11 85 14 88 6 6 115 33 136 34 10 0
12 -9 8 -34 -4 -24 -2 -34 6 -31 7 2 31 9 53 15 23 5 42 16 41 23 -2 51 1 53
83 76 44 12 85 19 90 16 5 -3 5 -18 0 -36 -8 -26 -6 -29 8 -25 9 3 36 10 59
16 39 10 42 13 45 48 3 36 5 37 53 48 28 6 62 9 78 6 27 -4 27 -4 27 47 0 28
3 51 6 51 3 0 5 -48 5 -107z m-1278 -1312 c3 -95 8 -175 10 -178 3 -2 21 -1
40 2 l34 7 7 76 c9 102 15 122 32 115 8 -3 14 0 14 7 0 6 4 9 9 6 5 -4 12 0
15 6 8 17 -2 -134 -10 -156 -4 -11 -1 -16 14 -16 31 0 52 11 52 27 0 10 9 13
28 11 29 -3 34 -17 20 -56 -6 -18 -3 -25 16 -34 30 -13 23 -38 -10 -38 -20 0
-25 -6 -30 -39 -5 -31 -10 -38 -23 -33 -13 5 -14 3 -4 -10 7 -8 10 -17 7 -20
-3 -3 9 -11 26 -17 37 -13 32 -30 -7 -24 -26 3 -26 3 -5 -6 12 -6 29 -8 37 -5
9 4 18 -2 24 -17 l10 -24 0 26 c1 22 7 27 48 36 54 13 63 10 63 -19 0 -21 0
-21 26 3 l25 24 -21 9 c-19 8 -21 16 -16 45 3 20 6 49 6 64 0 16 4 26 10 22 6
-3 10 -2 10 3 0 5 9 12 21 15 20 5 20 2 15 -65 -3 -52 -1 -74 9 -85 8 -7 12
-20 9 -27 -3 -8 -1 -17 4 -20 5 -3 8 8 6 24 -3 25 0 30 19 30 20 0 22 5 23 58
2 106 2 104 24 92 18 -10 21 -7 26 20 l7 30 133 0 c112 0 134 -2 134 -15 0 -8
4 -15 10 -15 5 0 7 -7 3 -15 -6 -17 -18 -11 -18 7 0 6 -6 13 -12 16 -21 6 -15
-14 13 -47 18 -22 24 -37 19 -52 -10 -29 -50 -69 -70 -69 -8 0 -15 -4 -15 -9
0 -5 -27 -9 -61 -9 -46 0 -63 -4 -73 -18 -13 -17 -15 -17 -39 -1 -16 10 -28
13 -32 7 -4 -6 -10 -8 -15 -5 -4 3 -10 -11 -12 -30 -2 -19 1 -37 7 -39 5 -2
-1 -5 -14 -5 -17 -1 -22 3 -17 15 3 9 2 12 -5 8 -6 -3 -9 -14 -6 -24 3 -13 -2
-17 -19 -17 -13 0 -21 3 -19 8 3 4 1 10 -4 13 -5 4 -13 2 -16 -4 -5 -8 -11 -7
-22 1 -12 10 -16 10 -24 -2 -7 -11 -9 -9 -9 9 0 12 -4 22 -10 22 -5 0 -10 -5
-10 -10 0 -6 -15 -9 -36 -7 -28 4 -38 0 -51 -19 -16 -25 -36 -24 -26 1 3 8 0
15 -6 15 -10 0 -15 -12 -12 -35 0 -5 -14 -20 -32 -32 -25 -17 -41 -21 -69 -17
-30 5 -37 3 -42 -14 -10 -31 -60 -42 -78 -17 -5 6 -11 6 -16 -2 -4 -7 -34 -15
-66 -17 -123 -12 -241 -28 -265 -38 -17 -6 -27 -6 -29 1 -5 14 -32 14 -32 1 0
-6 -28 -10 -65 -10 l-65 0 0 43 c0 23 -7 51 -15 61 -8 11 -15 14 -15 8 0 -7
-11 -12 -25 -12 -16 0 -25 6 -25 15 0 10 10 15 30 15 17 0 30 5 30 10 0 6 -13
10 -30 10 -28 0 -30 3 -30 36 0 35 1 36 34 32 33 -4 34 -3 46 49 8 33 19 55
30 58 23 7 44 95 22 95 -11 0 -13 7 -8 33 4 17 9 49 13 70 6 37 17 48 26 25 4
-10 8 -9 17 2 9 12 10 -6 6 -76 l-6 -90 34 4 c33 4 34 5 40 60 12 103 18 132
27 132 5 0 9 -5 9 -11 0 -5 5 -7 10 -4 12 7 12 -49 1 -117 l-8 -48 44 0 c30 0
43 4 41 13 -6 32 14 157 28 167 11 10 14 10 14 -1 0 -11 2 -11 10 1 10 14 5
-125 -6 -158 -4 -13 20 -13 84 -3 2 1 1 4 -2 9 -2 4 0 45 6 91 7 52 14 78 19
69 5 -7 9 31 9 91 0 57 2 102 4 100 2 -2 6 -82 9 -178z m4178 -1553 c7 -13 24
-38 38 -57 22 -29 26 -46 28 -110 2 -71 0 -78 -27 -109 l-29 -33 1 28 c1 33
-23 136 -33 143 -11 8 -19 91 -13 128 7 38 19 41 35 10z m-3269 -69 c3 -9 3
-33 -2 -52 -4 -21 -4 -37 1 -39 13 -4 17 -167 4 -169 -28 -3 -42 -20 -38 -44
3 -15 1 -25 -6 -25 -6 0 -11 9 -11 20 0 29 -14 24 -27 -9 -9 -24 -15 -29 -33
-24 -22 6 -22 5 -6 -20 12 -17 14 -27 6 -32 -6 -3 -8 -11 -4 -16 3 -5 2 -8 -3
-7 -13 3 -57 -14 -65 -26 -6 -8 -8 -8 -8 0 0 15 46 64 54 57 3 -4 6 -1 6 5 0
17 -8 15 -39 -7 -26 -19 -27 -19 -28 0 -1 10 2 19 8 19 17 0 9 19 -10 25 -11
3 -19 15 -18 28 0 12 -3 29 -7 39 -6 12 -1 18 23 23 17 4 31 11 31 16 0 5 9 9
20 9 10 0 23 8 29 17 5 10 13 15 17 11 10 -11 46 33 39 50 -6 17 12 52 27 52
6 0 8 -11 6 -24 -3 -14 -1 -31 3 -38 6 -8 9 4 10 32 0 25 2 53 4 63 2 9 -1 17
-6 17 -5 0 -9 -4 -9 -10 0 -5 -11 -12 -25 -16 -14 -3 -25 -10 -25 -15 0 -14
-30 -10 -46 6 -13 12 -12 15 5 24 16 9 18 8 14 -9 -3 -11 0 -20 6 -20 6 0 11
4 11 10 0 5 12 13 26 16 15 4 21 9 15 14 -6 3 -9 17 -7 31 3 13 5 27 5 31 2
14 46 3 53 -13z m-972 -902 c0 -47 28 -60 37 -17 7 36 23 50 23 20 0 -11 7
-23 15 -26 21 -9 19 -30 -5 -47 -18 -12 -18 -15 -5 -20 8 -4 15 -13 15 -22 0
-25 -38 0 -42 27 -2 17 -10 23 -29 24 -23 1 -29 -5 -38 -38 -16 -53 -37 -51
-31 5 1 10 -4 16 -12 15 -7 -2 -12 3 -10 10 1 6 -4 12 -10 13 -7 0 -3 4 8 9
17 7 23 20 28 68 l7 60 24 -22 c18 -16 25 -34 25 -59z m5260 -2242 c0 -6 9
-20 19 -29 20 -19 40 -107 46 -209 2 -31 7 -66 10 -77 4 -12 2 -20 -5 -20 -7
0 -14 9 -17 20 -7 26 -30 26 -38 -1 -5 -14 -10 -18 -17 -11 -9 9 -15 51 -32
212 l-6 55 15 -32 c10 -21 22 -33 35 -33 14 0 18 5 13 18 -4 9 -11 20 -17 24
-7 5 -7 8 2 8 22 0 13 30 -12 40 -25 9 -42 42 -31 60 8 13 35 -6 35 -25z
m-4920 -820 c0 -8 5 -15 11 -15 11 0 10 -13 -6 -95 -10 -48 -9 -60 3 -57 18 3
15 -8 -10 -29 -15 -13 -21 -30 -20 -53 1 -31 -2 -34 -31 -39 -39 -5 -48 6 -35
45 6 16 8 40 5 54 -2 13 -2 22 1 19 7 -6 32 43 32 63 0 24 34 122 43 122 4 0
7 -7 7 -15z"/>
<path d="M3217 7068 c-28 -8 -35 -13 -27 -22 9 -11 2 -118 -15 -217 -4 -25 -2
-25 33 -20 l37 6 12 105 c7 58 14 117 17 133 6 30 3 31 -57 15z"/>
<path d="M3090 7037 c-33 -11 -35 -15 -35 -57 0 -25 -4 -80 -7 -122 -8 -78 -8
-78 16 -78 30 0 57 10 52 19 -6 10 19 225 28 239 9 15 -8 14 -54 -1z"/>
<path d="M2949 7008 c-29 -8 -35 -13 -32 -31 2 -12 -2 -68 -9 -124 l-14 -101
28 -4 c16 -3 32 0 37 6 4 6 13 62 20 123 6 62 14 120 17 128 7 17 4 17 -47 3z"/>
<path d="M2829 6978 l-36 -9 -7 -80 c-4 -45 -9 -100 -12 -123 -6 -40 -5 -42
20 -41 14 1 29 5 33 9 6 6 43 248 39 252 -1 0 -17 -3 -37 -8z"/>
</g>
</svg>
