<?xml version="1.0" standalone="no"?>
<!DOCTYPE svg PUBLIC "-//W3C//DTD SVG 20010904//EN"
 "http://www.w3.org/TR/2001/REC-SVG-20010904/DTD/svg10.dtd">
<svg version="1.0" xmlns="http://www.w3.org/2000/svg"
 width="512.000000pt" height="512.000000pt" viewBox="0 0 512.000000 512.000000"
 preserveAspectRatio="xMidYMid meet">

<g transform="translate(0.000000,512.000000) scale(0.100000,-0.100000)"
fill="#000000" stroke="none">
<path d="M1565 4925 c-197 -44 -345 -186 -395 -380 -17 -67 -20 -111 -20 -307
0 -243 5 -274 50 -298 19 -10 20 -21 20 -155 l0 -145 -82 0 c-94 0 -161 -15
-233 -53 -100 -52 -173 -140 -205 -245 -20 -66 -20 -86 -18 -1338 l3 -1270 38
-76 c67 -136 182 -218 337 -240 l80 -11 0 -69 c0 -133 35 -158 218 -158 107 0
122 2 153 23 46 31 59 61 59 140 l0 67 455 0 455 0 0 -62 c0 -134 45 -168 218
-168 177 0 209 23 219 153 l6 75 76 11 c100 15 169 48 240 116 104 99 140 206
141 417 l0 87 46 -16 c32 -11 70 -14 127 -11 120 6 179 41 314 182 373 391
630 847 727 1288 40 183 50 282 50 468 0 208 -13 254 -95 345 -62 67 -116 93
-279 134 -279 69 -495 94 -795 89 l-221 -3 -52 39 c-81 59 -141 78 -264 84
l-108 5 0 143 c0 133 1 144 20 154 45 24 50 55 50 299 0 128 -5 254 -11 283
-41 199 -204 361 -404 403 -96 20 -829 20 -920 0z m1006 -107 c134 -66 225
-190 248 -338 15 -94 14 -453 -1 -468 -8 -8 -53 -12 -135 -12 -119 0 -123 1
-128 23 -2 12 -6 110 -7 217 -3 190 -4 196 -30 245 -32 60 -87 114 -148 146
-44 24 -50 24 -340 24 -281 0 -297 -1 -342 -22 -66 -30 -132 -95 -159 -156
-22 -48 -24 -69 -29 -262 l-5 -210 -125 -3 c-109 -2 -126 0 -137 15 -16 21
-17 339 -3 452 23 175 141 318 308 372 53 17 92 18 508 16 l450 -2 75 -37z
m-200 -273 c24 -17 57 -53 74 -79 l30 -49 5 -220 5 -219 33 -27 32 -27 0 -142
0 -142 -525 0 -525 0 0 141 0 140 35 33 35 33 0 190 c0 212 10 264 59 324 17
20 50 46 73 58 41 21 54 21 335 19 l291 -3 43 -30z m717 -1009 c34 -16 60 -31
58 -33 -3 -3 -55 -14 -118 -24 -168 -29 -345 -75 -414 -109 -73 -36 -126 -91
-163 -169 -24 -52 -26 -68 -29 -219 -4 -182 15 -366 50 -498 21 -76 22 -104
27 -834 4 -548 9 -762 18 -781 19 -44 75 -101 118 -120 106 -48 234 4 279 113
13 31 16 90 16 340 l1 303 27 -35 c65 -82 161 -192 249 -283 l95 -99 -4 -166
c-3 -156 -5 -171 -29 -223 -37 -79 -90 -133 -167 -171 l-67 -33 -989 -3
c-1090 -3 -1043 -5 -1140 59 -63 42 -111 109 -136 189 -20 64 -20 85 -18 1310
l3 1245 27 57 c52 111 152 189 265 207 26 4 482 7 1013 7 l965 -1 63 -29z
m637 -96 c253 -19 585 -84 685 -135 53 -27 112 -88 137 -142 15 -32 18 -68 18
-223 0 -202 -10 -290 -57 -480 -103 -426 -337 -833 -697 -1212 -125 -131 -181
-163 -281 -162 -98 0 -145 28 -269 153 -369 377 -635 854 -725 1302 -51 252
-57 532 -15 629 41 93 102 135 251 175 314 85 645 117 953 95z m-1015 -1587
c23 -43 67 -117 96 -164 l54 -86 0 -342 c0 -323 -1 -344 -20 -381 -49 -97
-194 -96 -242 0 -17 32 -18 84 -18 640 l0 605 44 -97 c24 -53 62 -132 86 -175z"/>
<path d="M1245 3306 c-16 -8 -44 -29 -62 -47 -67 -71 -63 8 -63 -1236 0 -1073
1 -1130 19 -1168 20 -46 69 -91 121 -113 85 -35 207 10 257 96 l28 47 0 1140
0 1140 -22 40 c-27 50 -58 80 -105 100 -45 18 -132 19 -173 1z m155 -77 c76
-43 70 54 70 -1201 0 -1095 -1 -1124 -20 -1155 -27 -45 -62 -65 -115 -65 -50
-1 -83 17 -119 66 -21 27 -21 32 -21 1156 0 1126 0 1129 21 1157 25 34 79 63
118 63 15 0 45 -9 66 -21z"/>
<path d="M1934 3301 c-51 -23 -99 -81 -113 -137 -8 -30 -11 -385 -11 -1151 l0
-1108 24 -51 c74 -159 299 -164 380 -9 21 40 21 46 24 1165 2 792 0 1136 -8
1163 -14 47 -62 102 -111 128 -49 24 -131 25 -185 0z m156 -70 c19 -10 44 -34
55 -52 20 -33 20 -52 20 -1156 0 -1117 0 -1122 -21 -1149 -35 -48 -67 -66
-118 -66 -54 0 -89 19 -116 65 -19 31 -20 60 -20 1157 0 1081 1 1126 19 1156
36 59 117 80 181 45z"/>
<path d="M3285 3253 c-160 -15 -449 -76 -533 -113 -65 -29 -82 -74 -82 -222
-1 -522 224 -1033 663 -1511 107 -115 141 -139 202 -139 63 0 97 25 215 155
389 429 598 868 641 1348 11 128 5 268 -13 304 -32 62 -83 84 -307 131 -180
39 -346 54 -556 52 -104 -1 -208 -3 -230 -5z m585 -88 c128 -18 261 -46 361
-76 91 -26 94 -35 86 -237 -11 -273 -71 -499 -202 -767 -107 -220 -224 -388
-422 -607 -105 -117 -144 -145 -182 -133 -11 3 -59 47 -107 98 -392 412 -619
883 -653 1352 -8 124 -1 249 15 265 31 31 355 101 549 119 134 13 414 6 555
-14z"/>
<path d="M3745 2689 c-11 -6 -88 -79 -171 -161 l-150 -149 -20 22 c-44 50 -96
79 -141 79 -88 0 -143 -55 -143 -144 0 -48 1 -50 93 -143 99 -102 124 -119
184 -129 89 -14 111 1 331 219 221 221 236 242 214 315 -18 60 -62 95 -124 99
-29 2 -62 -2 -73 -8z m112 -87 c32 -43 20 -61 -174 -254 -104 -102 -198 -191
-210 -197 -58 -29 -121 -1 -215 97 -74 76 -82 101 -46 139 35 37 63 30 132
-37 35 -33 71 -60 81 -60 11 0 91 71 192 171 158 158 174 171 199 165 15 -4
34 -15 41 -24z"/>
<path d="M4182 4524 c-115 -57 -169 -191 -127 -315 45 -131 187 -199 327 -157
53 16 121 78 149 135 27 56 30 149 7 204 -59 136 -225 198 -356 133z m195 -63
c122 -56 137 -242 25 -316 -73 -48 -157 -43 -224 13 -32 27 -67 93 -68 127 0
71 48 146 115 176 51 24 99 23 152 0z"/>
<path d="M457 4186 c-192 -69 -239 -309 -86 -439 103 -89 252 -82 348 14 50
50 71 103 71 180 0 178 -169 303 -333 245z m167 -84 c84 -49 117 -147 78 -234
-57 -130 -240 -147 -318 -29 -105 160 77 359 240 263z"/>
<path d="M4781 3116 c-17 -21 -10 -107 10 -119 32 -20 49 -1 49 56 0 69 -29
99 -59 63z"/>
<path d="M4782 2857 c-7 -8 -16 -58 -22 -113 -20 -196 -57 -360 -127 -565 -26
-75 -44 -143 -40 -152 9 -24 44 -21 61 6 24 36 102 283 130 409 36 159 63 385
49 406 -13 22 -37 26 -51 9z"/>
<path d="M482 1968 c-19 -19 -15 -107 4 -115 28 -11 49 11 52 56 4 59 -25 90
-56 59z"/>
<path d="M482 1718 c-9 -9 -12 -128 -12 -475 0 -447 1 -463 19 -473 15 -7 23
-6 35 6 14 14 16 71 16 474 0 444 -1 460 -19 470 -24 13 -24 13 -39 -2z"/>
<path d="M4268 1070 c-9 -6 -24 -34 -32 -64 -21 -73 -84 -163 -145 -210 -28
-21 -84 -50 -124 -65 -57 -21 -73 -31 -75 -49 -5 -31 10 -47 60 -61 133 -40
233 -136 281 -273 38 -105 76 -105 114 1 49 136 144 229 278 271 52 16 65 27
65 55 0 28 -13 38 -70 54 -63 18 -118 52 -173 108 -46 46 -107 150 -107 182 0
22 -28 61 -43 61 -7 0 -20 -5 -29 -10z m132 -290 c36 -36 84 -74 106 -85 l42
-20 -52 -29 c-65 -37 -156 -129 -180 -184 -10 -23 -22 -42 -25 -42 -3 0 -15
19 -26 42 -26 54 -98 127 -173 176 l-60 39 41 20 c62 30 131 96 178 169 l42
64 21 -42 c12 -23 50 -72 86 -108z"/>
</g>
</svg>
