<?xml version="1.0" standalone="no"?>
<!DOCTYPE svg PUBLIC "-//W3C//DTD SVG 20010904//EN"
 "http://www.w3.org/TR/2001/REC-SVG-20010904/DTD/svg10.dtd">
<svg version="1.0" xmlns="http://www.w3.org/2000/svg"
 width="630.000000pt" height="420.000000pt" viewBox="0 0 630.000000 420.000000"
 preserveAspectRatio="xMidYMid meet">

<g transform="translate(0.000000,420.000000) scale(0.100000,-0.100000)"
fill="#000000" stroke="none">
<path d="M0 3750 c0 -393 2 -450 15 -450 8 0 15 -8 16 -17 0 -10 2 -26 4 -35
2 -12 -3 -18 -16 -18 -18 0 -19 -15 -19 -538 0 -507 1 -539 18 -538 37 1 137
-17 143 -27 4 -5 40 -13 81 -17 86 -8 96 -12 109 -47 8 -23 13 -24 47 -19 55
10 82 9 135 -5 36 -9 56 -10 80 -2 18 7 55 10 82 8 28 -2 90 -6 138 -9 86 -4
88 -4 99 20 6 13 15 24 21 24 5 0 7 6 4 13 -7 19 3 31 43 51 22 10 36 13 38 6
6 -16 17 -12 47 16 20 18 30 22 35 14 5 -8 16 -9 30 -5 18 6 20 9 9 16 -10 6
-6 9 14 9 15 0 27 -5 27 -11 0 -5 5 -7 11 -3 8 4 7 9 -2 15 -10 6 -9 10 6 15
11 4 23 12 27 17 9 14 100 9 110 -6 5 -8 8 -8 8 -1 0 16 54 37 77 30 40 -12
83 -16 83 -7 0 5 10 11 21 14 19 5 20 7 6 21 -8 8 -27 17 -41 20 -48 9 -66 17
-66 31 0 7 8 16 18 18 9 3 0 5 -21 6 -21 0 -47 6 -58 11 -14 8 -19 7 -19 -1 0
-8 -16 -9 -56 -4 -40 5 -54 3 -50 -4 5 -8 -16 -11 -66 -10 -40 1 -64 4 -53 6
11 3 25 9 31 14 6 5 25 6 42 3 24 -5 33 -2 38 10 3 9 14 16 23 17 12 0 11 2
-4 8 -11 5 -23 7 -26 5 -4 -2 -9 3 -13 11 -4 11 1 15 19 15 13 0 26 4 29 9 3
5 22 12 42 15 39 8 147 62 152 78 2 5 14 2 26 -6 20 -13 24 -12 34 4 7 12 8
21 2 25 -6 3 -10 1 -10 -4 0 -14 -27 -14 -35 -1 -3 6 6 15 20 20 14 5 24 14
21 18 -3 5 0 9 7 10 108 10 141 25 110 47 -16 12 -16 14 -1 29 19 18 59 21 75
5 7 -7 15 -3 26 14 15 24 25 26 135 39 6 1 10 4 7 6 -9 9 37 41 51 35 8 -3 25
2 39 11 13 9 35 16 47 16 22 1 67 26 57 33 -2 1 -23 8 -47 14 -37 9 -46 8 -66
-8 -13 -11 -28 -19 -33 -19 -4 0 0 5 10 11 18 11 18 12 -1 25 -17 11 -30 12
-71 2 -28 -6 -51 -16 -51 -22 0 -6 -9 -17 -20 -23 -16 -11 -21 -10 -30 7 -6
11 -17 20 -25 20 -8 0 -15 7 -15 15 0 12 9 15 35 13 44 -3 61 12 46 40 -13 25
3 33 79 38 30 2 70 5 88 7 22 1 43 13 63 35 17 18 34 30 40 27 5 -3 6 1 3 9
-9 24 12 19 29 -6 8 -13 30 -40 48 -60 29 -32 40 -37 76 -36 23 0 49 5 56 12
19 14 30 63 17 71 -19 11 -10 35 15 41 14 3 25 10 25 15 0 17 78 1 116 -23 6
-4 20 2 30 13 10 11 24 17 31 15 7 -3 29 3 48 14 20 11 45 20 56 20 14 0 19 5
16 14 -4 10 -1 13 9 9 7 -3 14 0 14 6 0 6 5 11 11 11 12 0 49 38 49 50 0 4
-12 5 -26 2 -18 -3 -22 -7 -13 -13 10 -6 9 -9 -5 -15 -11 -4 -24 0 -34 10 -15
15 -15 16 1 16 10 0 14 5 11 14 -3 9 6 19 25 27 41 18 39 29 -4 30 -19 1 -39
3 -45 4 -5 1 -13 3 -17 4 -5 1 -1 6 7 12 12 8 12 12 2 16 -10 4 -8 11 9 29 12
13 28 24 36 24 7 0 13 10 13 21 0 16 5 20 20 16 11 -3 18 0 17 6 -1 6 8 13 21
15 12 2 22 -1 22 -7 0 -22 39 -11 42 12 2 17 9 21 26 19 21 -3 22 -1 12 17 -6
12 -14 21 -18 21 -4 0 -12 10 -17 23 -6 12 -17 22 -25 22 -8 0 -15 9 -15 19 0
17 -9 19 -80 21 -44 1 -92 5 -106 9 -21 6 -30 2 -46 -18 -18 -22 -27 -25 -69
-22 -27 2 -61 7 -76 11 -19 5 -28 3 -28 -4 0 -6 -11 -17 -25 -23 -14 -6 -25
-17 -25 -24 0 -7 -8 -10 -20 -7 -35 9 -13 -22 25 -37 19 -8 35 -15 35 -17 0
-2 -9 -12 -20 -23 -11 -11 -20 -15 -20 -10 0 6 -3 9 -7 9 -21 -3 -31 3 -43 29
-7 15 -13 31 -12 35 2 5 -8 17 -20 27 -28 22 -116 26 -125 5 -8 -21 -83 17
-83 42 0 23 -20 14 -30 -13 -13 -33 -13 -34 3 -34 15 0 41 -49 32 -58 -7 -7
-77 -32 -91 -32 -6 0 -28 11 -48 25 -20 14 -50 25 -66 25 -17 0 -30 4 -30 9 0
5 -19 17 -42 27 l-43 18 35 6 35 7 -27 11 c-28 12 -78 3 -77 -13 0 -5 -4 -11
-10 -13 -6 -2 -11 1 -11 7 0 6 -10 11 -23 11 -27 0 -49 -49 -41 -90 4 -18 -1
-31 -16 -45 -12 -11 -25 -19 -29 -19 -3 1 -16 -2 -29 -7 -29 -11 -35 -11 -28
0 4 5 -13 12 -36 16 -24 4 -60 11 -80 17 -28 8 -41 8 -53 -2 -11 -9 -19 -9
-28 -2 -9 8 -24 7 -51 -2 -57 -20 -82 -10 -77 30 1 6 -6 17 -15 25 -13 10 -17
10 -24 -1 -4 -7 -17 -11 -29 -7 -21 5 -29 -7 -11 -18 20 -12 9 -25 -15 -19
-17 4 -25 2 -25 -7 0 -7 -10 -23 -22 -36 -19 -21 -21 -27 -9 -44 16 -27 8 -34
-33 -31 -25 3 -41 -3 -61 -22 -15 -14 -32 -26 -36 -26 -5 0 -9 -7 -9 -16 0
-14 -7 -16 -40 -11 -44 6 -56 -2 -37 -25 15 -19 74 -31 82 -18 3 6 1 10 -5 10
-6 0 -8 5 -5 11 5 6 13 3 22 -10 8 -12 19 -21 24 -21 5 0 23 -16 40 -35 20
-22 40 -35 55 -35 14 0 41 -7 60 -15 20 -8 40 -12 45 -9 5 3 23 -9 39 -26 17
-18 30 -30 30 -27 0 2 26 -2 58 -10 31 -7 65 -16 76 -18 55 -13 77 -31 90 -75
13 -45 13 -45 -13 -50 -14 -3 -38 -13 -54 -24 -24 -16 -31 -17 -59 -5 -39 16
-147 16 -177 -1 -13 -6 -34 -9 -47 -6 -13 4 -24 3 -24 -1 0 -9 42 -29 83 -39
33 -8 44 -22 23 -30 -14 -5 -117 8 -163 22 -17 5 -23 2 -23 -10 0 -22 -11 -20
-53 8 -35 24 -36 24 -42 5 -8 -23 -42 -33 -92 -26 -109 16 -166 28 -186 39
-12 7 -25 12 -29 13 -3 0 -10 3 -14 8 -4 4 -20 7 -35 7 -31 0 -77 18 -98 38
-7 7 -27 16 -43 19 -16 3 -37 17 -46 31 -15 24 -15 26 11 48 27 23 35 48 18
58 -5 3 -12 27 -16 53 -4 27 -11 56 -17 66 -12 24 0 63 15 48 16 -16 37 -14
37 4 0 8 10 17 23 19 58 12 97 14 103 5 3 -6 11 -3 18 7 10 12 15 14 20 5 4
-6 3 -18 -4 -26 -7 -9 -8 -20 -2 -32 6 -10 15 -30 21 -45 8 -22 17 -28 41 -28
35 0 39 18 10 45 -27 25 -25 39 11 69 17 14 28 30 24 35 -3 6 13 8 40 6 33 -3
48 0 52 11 3 8 15 14 28 14 12 0 28 7 35 15 10 12 8 16 -14 25 -15 5 -38 13
-51 16 -13 3 -31 14 -41 25 -12 14 -31 19 -65 19 -26 0 -51 4 -54 10 -3 5 -15
15 -27 21 -16 8 -19 8 -13 -1 5 -9 1 -10 -16 -5 -96 27 -100 46 -11 59 50 8
62 13 62 28 0 29 69 24 98 -6 12 -13 22 -28 22 -33 0 -21 35 -41 63 -36 15 3
27 9 27 14 0 5 14 15 30 24 16 9 30 21 30 28 -1 6 -20 24 -44 40 -45 28 -72
35 -60 16 5 -8 -1 -10 -19 -7 -15 3 -28 1 -29 -4 -2 -6 -19 -7 -40 -3 -35 7
-35 7 -22 35 12 22 12 33 3 54 -12 26 -33 34 -43 17 -3 -5 3 -20 14 -34 20
-25 20 -26 2 -36 -19 -10 -58 -5 -78 11 -7 5 -21 11 -32 13 -12 2 -35 14 -52
27 -24 17 -30 28 -25 46 4 15 -2 32 -16 50 l-21 27 68 11 c52 8 73 8 84 -2 8
-6 24 -14 35 -18 31 -9 75 -54 75 -76 0 -11 5 -20 11 -20 6 0 8 9 4 20 -6 17
-2 20 27 19 30 -2 31 -2 6 -6 -24 -4 -27 -7 -18 -24 14 -26 23 -24 59 13 30
31 32 31 70 18 48 -16 100 -65 85 -80 -8 -8 -15 -6 -24 5 -15 18 -40 20 -40 3
0 -7 8 -23 18 -35 16 -21 20 -22 54 -10 44 15 59 27 35 27 -22 0 -22 16 1 32
10 7 21 21 25 32 10 25 33 5 42 -35 4 -16 11 -27 15 -24 11 7 2 33 -22 64 -13
17 -15 28 -8 35 5 5 10 18 10 28 0 9 10 26 21 37 14 13 20 27 16 40 -5 22 7
29 18 11 9 -14 15 -13 54 11 27 16 31 23 20 30 -11 7 -11 9 4 9 10 0 17 8 17
21 0 16 -4 19 -20 14 -14 -5 -20 -2 -20 9 0 10 -9 16 -25 16 -14 0 -25 5 -25
10 0 6 17 10 38 10 50 0 70 13 53 34 -10 11 -19 13 -38 5 -14 -5 -28 -7 -31
-4 -3 3 1 5 8 5 7 0 11 2 8 5 -3 4 -18 3 -33 -1 -20 -5 -23 -9 -13 -15 9 -6 7
-9 -9 -9 -12 0 -38 -10 -58 -21 -28 -17 -33 -24 -24 -35 6 -7 7 -19 3 -25 -4
-8 -3 -9 4 -5 7 4 12 1 12 -8 0 -26 -22 -18 -61 20 -21 20 -42 33 -48 29 -6
-3 -9 -11 -6 -16 9 -14 -19 -11 -33 3 -10 10 -15 10 -21 -1 -6 -8 -19 -12 -35
-9 -30 6 -31 1 -11 -26 21 -28 19 -39 -7 -34 -20 4 -23 0 -23 -26 0 -27 -4
-31 -29 -34 -43 -5 -76 16 -76 48 0 15 -6 32 -12 38 -17 13 -58 -3 -58 -22 0
-14 -38 -19 -41 -6 -8 32 -4 49 12 53 13 3 19 14 19 31 0 24 3 26 44 26 41 0
45 2 48 28 2 15 8 27 13 27 6 0 22 9 37 18 14 10 32 17 40 16 26 -3 37 1 67
27 25 21 44 26 97 29 46 3 81 12 114 29 29 15 51 22 55 16 8 -13 92 -13 100 0
3 6 17 10 31 10 13 0 24 4 24 9 0 5 13 9 29 9 15 -1 33 2 40 6 6 4 11 4 11 -1
0 -4 21 -7 46 -5 39 4 46 1 51 -17 4 -17 13 -21 47 -21 52 0 86 28 86 70 l0
30 -755 0 -755 0 0 -450z m890 19 c0 -14 -7 -19 -27 -19 -16 0 -23 4 -17 8 6
4 13 15 17 25 8 22 27 13 27 -14z m-565 1 c16 -6 14 -8 -13 -12 -18 -2 -32 -2
-32 2 0 4 -13 5 -30 2 -20 -3 -30 -10 -30 -22 0 -12 -9 -17 -31 -18 -34 -1
-48 20 -29 43 13 15 127 19 165 5z m35 -37 c0 -5 -4 -14 -9 -21 -7 -11 -9 -11
-14 1 -3 8 -3 18 0 21 9 8 23 7 23 -1z m490 -60 c-12 -8 -24 -12 -28 -8 -9 9
28 36 40 29 5 -4 0 -13 -12 -21z m785 -193 c3 -5 -1 -10 -9 -10 -9 0 -16 5
-16 10 0 6 4 10 9 10 6 0 13 -4 16 -10z m1035 -16 c0 -20 -7 -17 -20 6 -9 16
-8 18 5 14 8 -4 15 -12 15 -20z m-916 1 c3 -9 0 -15 -8 -15 -7 0 -19 7 -26 15
-10 12 -9 15 8 15 11 0 22 -7 26 -15z m824 -40 c-9 -9 -38 7 -38 20 0 21 24
24 34 4 5 -11 7 -22 4 -24z m-1372 -93 c6 -8 16 -12 22 -8 6 3 18 -1 27 -11
12 -11 35 -17 79 -17 41 -1 77 -8 106 -23 25 -11 79 -31 120 -43 81 -25 120
-45 120 -65 0 -20 -32 -41 -82 -55 -38 -10 -49 -18 -57 -41 -6 -16 -7 -37 -4
-46 5 -13 3 -15 -13 -9 -10 5 -33 12 -50 17 -18 5 -51 26 -75 47 -34 31 -41
42 -34 58 17 39 15 54 -10 70 -19 13 -28 14 -39 5 -9 -8 -26 -9 -54 -3 -22 5
-46 6 -53 1 -24 -15 -52 -10 -76 13 l-24 23 31 25 31 25 -33 34 -33 34 45 -8
c25 -4 50 -14 56 -23z m1019 -57 c0 -23 7 -33 30 -45 37 -19 55 -53 55 -109
l0 -44 -23 21 c-28 27 -37 28 -38 5 -1 -15 -2 -16 -6 -2 -2 9 -22 24 -43 34
-41 18 -76 14 -65 -7 4 -7 -6 2 -22 19 -21 25 -32 30 -43 23 -8 -5 -28 -10
-43 -10 -23 0 -27 -3 -22 -19 3 -11 1 -22 -5 -26 -6 -4 -11 -1 -9 6 3 28 -1
37 -23 42 -12 3 -29 2 -39 -3 -12 -7 -29 -5 -55 6 l-38 16 32 14 c18 7 32 20
32 27 0 23 68 77 95 77 13 0 34 -10 47 -23 21 -20 28 -22 73 -14 29 5 56 16
65 28 22 28 45 20 45 -16z m-1620 -45 c-6 -9 -55 11 -55 22 0 4 13 2 30 -3 16
-6 28 -15 25 -19z m2000 1 c3 -5 1 -12 -5 -16 -5 -3 -10 1 -10 9 0 18 6 21 15
7z m-2370 -47 c15 5 21 -14 9 -27 -10 -10 -44 27 -43 48 0 18 1 18 10 -4 6
-15 15 -21 24 -17z m1085 -69 c-7 -9 -15 -13 -17 -11 -6 6 20 36 26 30 2 -2
-2 -10 -9 -19z m840 -55 c0 -5 -5 -10 -11 -10 -5 0 -7 5 -4 10 3 6 8 10 11 10
2 0 4 -4 4 -10z m-610 -160 c0 -5 -6 -10 -14 -10 -8 0 -18 5 -21 10 -3 6 3 10
14 10 12 0 21 -4 21 -10z m467 -56 c-3 -3 -12 -4 -19 -1 -8 3 -5 6 6 6 11 1
17 -2 13 -5z m-1556 -299 c16 -9 35 -15 42 -14 34 4 62 -17 89 -69 l17 -32
-47 0 c-26 0 -63 -4 -83 -9 -25 -6 -46 -4 -70 6 -18 7 -45 11 -60 8 -18 -4
-41 1 -66 14 -21 11 -32 20 -25 21 8 0 27 9 43 21 24 17 27 24 18 35 -9 12 -6
14 22 14 19 0 41 5 49 10 21 14 36 12 71 -5z m976 -17 c-3 -8 -6 -5 -6 6 -1
11 2 17 5 13 3 -3 4 -12 1 -19z m-40 -11 c10 -11 -30 -8 -47 3 -11 7 -8 8 13
6 15 -1 30 -6 34 -9z m-357 -183 c0 -8 -19 -13 -24 -6 -3 5 1 9 9 9 8 0 15 -2
15 -3z m381 -4 c10 -6 19 -15 19 -20 0 -13 -37 -22 -60 -15 -23 7 -27 25 -5
25 8 0 15 5 15 10 0 13 6 13 31 0z m-1111 -110 c0 -17 3 -18 27 -9 16 6 36 17
45 26 10 9 25 12 38 8 27 -8 20 -30 -9 -29 -11 0 -21 -6 -21 -13 0 -8 -8 -17
-17 -20 -10 -4 -20 -10 -24 -15 -3 -4 -27 -9 -54 -10 -45 -3 -49 -1 -56 24 -6
23 -3 30 24 47 35 22 47 19 47 -9z"/>
<path d="M1410 3119 c0 -25 13 -30 49 -18 34 12 41 29 14 30 -10 0 -28 2 -40
3 -16 2 -23 -3 -23 -15z"/>
<path d="M4243 4177 c8 -13 15 -40 15 -61 0 -43 9 -57 23 -36 8 13 12 12 25
-5 12 -16 14 -34 9 -82 -6 -57 -5 -62 16 -73 12 -7 37 -12 55 -13 34 -1 45
-11 22 -20 -7 -3 3 -6 23 -6 27 -1 38 -6 46 -24 7 -14 7 -29 2 -39 -5 -9 -6
-19 -2 -21 22 -12 73 -20 111 -18 37 2 44 0 49 -18 3 -11 9 -19 13 -16 18 11
68 -8 79 -31 15 -33 50 -39 122 -20 64 16 84 32 131 103 22 33 24 42 13 47
-17 6 -21 36 -5 36 6 0 10 -4 10 -10 0 -5 5 -10 11 -10 6 0 9 6 6 14 -7 17 86
81 102 71 6 -3 24 1 41 10 17 9 35 13 40 10 6 -3 10 1 10 10 0 9 13 21 30 26
17 6 30 16 30 22 0 6 10 21 22 34 21 22 21 24 5 40 -9 10 -17 13 -17 7 0 -11
-42 -34 -60 -34 -6 0 -11 10 -11 23 -1 15 -3 17 -6 6 -7 -27 -41 -31 -45 -5
-2 13 -11 22 -26 24 -22 3 -23 4 -6 17 16 12 17 16 5 39 l-14 26 -445 0 -444
0 15 -23z"/>
<path d="M6010 4185 c0 -8 5 -15 10 -15 6 0 10 -9 10 -20 0 -22 -33 -60 -52
-60 -7 0 -32 -11 -55 -24 -25 -15 -51 -22 -65 -19 -19 4 -20 3 -8 -6 13 -10
13 -13 -2 -22 -10 -5 -18 -17 -18 -24 0 -18 -12 -19 -26 -5 -12 12 -64 -6 -64
-22 0 -4 -6 -8 -14 -8 -8 0 -27 -13 -44 -28 -16 -15 -41 -33 -56 -40 -15 -7
-32 -25 -37 -42 -8 -23 -20 -32 -51 -40 -28 -8 -38 -15 -34 -26 3 -8 1 -35 -4
-62 -7 -38 -5 -50 7 -64 14 -16 14 -18 1 -18 -9 0 -18 -9 -21 -20 -3 -12 -14
-20 -26 -20 -25 0 -71 -20 -71 -32 0 -4 5 -8 10 -8 6 0 10 -17 10 -38 0 -37 2
-39 43 -52 23 -7 55 -16 71 -21 16 -5 41 -9 56 -9 15 0 33 -7 40 -15 11 -13
10 -18 -6 -30 -10 -8 -22 -15 -26 -15 -5 0 -8 -10 -8 -23 0 -13 -5 -28 -12
-35 -17 -17 -68 -15 -68 2 0 8 -8 12 -23 9 -25 -5 -27 -19 -11 -88 11 -49 21
-55 95 -55 59 0 70 -3 79 -21 14 -25 -8 -63 -51 -87 -16 -10 -27 -22 -25 -28
3 -7 -2 -21 -10 -33 -17 -24 -46 -29 -38 -6 7 17 -4 19 -26 5 -13 -9 -13 -11
0 -21 12 -8 10 -9 -7 -4 -15 4 -23 2 -23 -6 0 -7 -7 -20 -16 -30 -14 -16 -13
-18 19 -30 26 -9 33 -16 30 -33 -2 -12 5 -38 15 -58 18 -35 19 -37 1 -41 -21
-6 -26 -37 -6 -37 6 0 32 11 57 25 83 45 152 75 172 75 10 0 28 9 40 20 37 34
128 39 128 6 0 -7 18 -21 40 -31 33 -15 45 -16 66 -7 37 17 54 15 54 -8 0 -21
24 -28 35 -10 3 6 14 10 23 9 14 0 13 -3 -5 -16 -23 -16 -32 -53 -13 -53 7 0
8 -13 5 -34 -8 -41 1 -48 60 -48 l44 0 -27 -24 c-15 -13 -33 -28 -39 -34 -15
-12 -9 -103 7 -108 5 -2 10 -10 10 -19 0 -19 74 -15 112 7 27 15 28 17 28 108
0 85 -1 92 -20 92 -11 0 -20 5 -20 11 0 6 9 13 20 16 20 5 20 14 20 734 l0
729 -145 0 c-122 0 -145 -2 -145 -15z m-163 -217 c-3 -7 -5 -2 -5 12 0 14 2
19 5 13 2 -7 2 -19 0 -25z"/>
<path d="M883 4016 c20 -30 39 -33 35 -5 -2 15 -10 23 -26 24 -20 2 -21 0 -9
-19z"/>
<path d="M3920 4006 c0 -9 -6 -16 -12 -16 -18 -1 -58 -36 -58 -50 0 -6 -4 -9
-9 -6 -25 16 -29 -168 -4 -196 9 -10 18 -35 20 -55 2 -21 7 -40 11 -43 4 -3 7
-14 7 -24 0 -10 9 -24 20 -30 11 -6 23 -15 27 -20 4 -6 14 9 23 32 16 40 35
56 35 30 0 -6 6 -3 14 7 17 24 9 54 -18 66 -18 8 -21 17 -18 54 4 40 2 45 -17
45 -12 0 -21 5 -21 11 0 6 7 8 17 5 21 -8 33 10 33 52 0 20 6 35 15 38 8 4 15
14 15 23 0 9 5 22 11 28 13 13 3 50 -14 50 -6 0 -27 3 -44 7 -27 6 -33 4 -33
-8z"/>
<path d="M679 3874 c-7 -8 -18 -13 -24 -10 -8 3 -11 -2 -8 -15 7 -25 21 -24
48 5 17 18 19 26 10 30 -8 3 -19 -2 -26 -10z"/>
<path d="M3980 3760 c0 -22 5 -40 10 -40 6 0 10 18 10 40 0 22 -4 40 -10 40
-5 0 -10 -18 -10 -40z"/>
<path d="M4087 3794 c-12 -12 -8 -42 6 -47 24 -9 44 10 31 30 -12 20 -27 26
-37 17z"/>
<path d="M5440 3792 c0 -5 7 -9 15 -9 8 0 15 4 15 9 0 4 -7 8 -15 8 -8 0 -15
-4 -15 -8z"/>
<path d="M4201 3639 c-14 -5 -30 -8 -37 -5 -7 3 -15 -9 -19 -30 -10 -58 -41
-84 -96 -84 -39 0 -49 -4 -54 -20 -3 -11 -2 -28 4 -37 10 -17 10 -17 11 0 0
10 8 17 20 17 24 0 25 -7 6 -52 -22 -51 -2 -106 39 -110 16 -2 29 -8 28 -14
-3 -16 34 -47 46 -39 6 3 11 17 11 31 0 13 6 24 13 24 8 0 24 9 37 20 20 17
24 18 38 4 11 -12 12 -18 4 -23 -29 -18 114 3 144 21 33 20 50 49 39 68 -8 13
-52 13 -60 0 -3 -5 -15 -10 -25 -10 -13 0 -22 -9 -26 -25 -4 -18 -13 -25 -29
-25 -31 0 -39 26 -40 127 0 76 2 83 23 92 27 13 33 67 6 57 -9 -3 -21 -3 -27
1 -7 4 -2 10 13 14 22 6 21 7 -10 7 -19 1 -46 -4 -59 -9z m39 -38 c0 -5 -11
-12 -24 -15 -13 -3 -31 -9 -40 -12 -10 -4 -16 -1 -16 9 0 14 13 19 68 26 6 0
12 -3 12 -8z"/>
<path d="M732 3621 c2 -7 7 -12 11 -12 12 1 9 15 -3 20 -7 2 -11 -2 -8 -8z"/>
<path d="M1742 3568 c2 -6 10 -14 16 -16 7 -2 10 2 6 12 -7 18 -28 22 -22 4z"/>
<path d="M650 3560 c0 -5 9 -10 19 -10 11 0 21 -6 24 -12 2 -7 7 -10 11 -7 3
3 4 14 0 23 -7 17 -54 23 -54 6z"/>
<path d="M1390 3460 c0 -13 7 -20 19 -20 11 0 26 -3 35 -6 28 -11 17 15 -14
31 -37 19 -40 19 -40 -5z"/>
<path d="M4305 3390 c3 -5 8 -10 11 -10 2 0 4 5 4 10 0 6 -5 10 -11 10 -5 0
-7 -4 -4 -10z"/>
<path d="M2688 3293 c7 -3 16 -2 19 1 4 3 -2 6 -13 5 -11 0 -14 -3 -6 -6z"/>
<path d="M4290 3290 c0 -5 7 -10 15 -10 8 0 15 5 15 10 0 6 -7 10 -15 10 -8 0
-15 -4 -15 -10z"/>
<path d="M2740 3261 c0 -6 5 -13 10 -16 6 -3 10 -15 10 -26 0 -13 7 -19 23
-19 13 0 42 -9 65 -20 22 -11 42 -20 44 -20 2 0 4 11 4 25 1 14 -2 23 -6 20
-4 -3 -10 2 -14 10 -3 8 -14 15 -26 15 -11 0 -25 9 -32 20 -13 21 -78 29 -78
11z"/>
<path d="M715 3209 c-4 -6 -5 -12 -2 -15 2 -3 7 2 10 11 7 17 1 20 -8 4z"/>
<path d="M2945 3200 c-3 -5 -1 -10 4 -10 6 0 11 5 11 10 0 6 -2 10 -4 10 -3 0
-8 -4 -11 -10z"/>
<path d="M3163 3190 c-3 -11 -9 -20 -14 -20 -5 0 -19 -10 -31 -22 -13 -13 -31
-27 -42 -33 -37 -19 -57 -59 -58 -113 0 -29 -4 -55 -9 -58 -15 -9 -10 -50 11
-106 11 -29 20 -73 21 -98 0 -45 5 -42 24 15 11 34 25 -4 24 -65 l-2 -56 -46
-2 c-70 -3 -213 -32 -238 -48 -38 -24 -46 -53 -73 -239 -24 -167 -25 -180 -9
-183 9 -2 19 -14 21 -27 3 -14 1 -22 -3 -19 -5 3 -9 -2 -9 -10 0 -20 17 -30
23 -14 3 8 6 6 6 -4 1 -22 21 -24 21 -3 0 8 5 15 11 15 5 0 8 4 4 9 -9 15 14
24 29 12 11 -9 16 -2 25 36 6 27 21 71 32 100 21 52 21 52 45 36 15 -9 23 -22
20 -30 -3 -8 1 -28 10 -46 21 -39 26 -163 8 -178 -30 -25 -2 -36 108 -43 92
-5 112 -4 122 8 8 11 34 16 94 17 l83 2 -33 29 c-46 40 -89 58 -143 58 -25 0
-45 5 -45 10 0 6 24 10 54 10 39 0 55 4 60 15 4 13 10 14 26 5 11 -6 18 -15
15 -21 -8 -12 35 -48 58 -49 11 0 24 -13 32 -32 8 -18 14 -26 15 -18 0 9 -7
25 -15 37 -15 22 -14 22 47 41 35 11 88 23 118 27 30 4 62 14 72 22 20 18 32
2 24 -30 -7 -31 -78 -61 -142 -63 -33 0 -58 -6 -67 -16 -14 -14 -12 -16 20
-21 20 -4 55 -4 78 0 28 3 45 1 50 -7 5 -8 1 -11 -11 -9 -33 4 -186 -26 -259
-50 -48 -16 -183 -20 -282 -8 -20 2 -33 -1 -33 -7 0 -7 -3 -8 -8 -1 -4 6 -14
10 -22 10 -8 -1 -20 3 -27 7 -6 5 -14 5 -18 -2 -3 -5 -17 -10 -31 -10 -14 0
-22 4 -19 10 8 13 -1 13 -26 -1 -27 -14 -55 -3 -63 24 -6 20 -8 19 -24 -15
-23 -52 -35 -48 -26 10 4 29 3 43 -3 37 -9 -9 -22 -60 -38 -142 -4 -18 -11
-33 -16 -33 -13 0 -11 14 3 28 7 7 8 12 2 12 -6 0 -9 28 -7 68 2 59 1 62 -7
27 -5 -22 -9 -56 -9 -77 -1 -20 -7 -39 -13 -41 -10 -4 -10 -6 0 -6 15 -1 6
-21 -10 -21 -7 0 -8 30 -3 93 6 75 5 90 -6 80 -7 -8 -12 -32 -11 -60 1 -27 -2
-61 -7 -78 -8 -25 -9 -20 -10 38 -1 40 -5 67 -12 67 -5 0 -7 -5 -4 -11 8 -12
-4 -103 -12 -95 -4 3 -5 26 -5 51 2 30 -2 45 -10 46 -7 1 -26 2 -42 3 -16 0
-31 6 -33 13 -3 7 3 9 17 6 17 -4 19 -2 13 13 -7 18 -6 18 11 2 24 -25 32 -23
47 11 7 17 22 32 32 35 15 4 17 8 7 25 -12 23 -1 28 19 9 11 -11 13 -10 8 5
-4 11 -1 17 8 17 12 0 12 3 -2 19 -16 19 -16 19 -36 0 -23 -21 -53 -26 -41 -7
5 7 3 8 -6 3 -10 -6 -7 -12 11 -26 22 -17 17 -25 -13 -20 -12 2 -58 -46 -58
-60 0 -12 -2 -12 -9 -1 -8 13 -10 10 -39 -63 -2 -5 1 -3 7 5 16 23 13 3 -5
-31 -19 -38 -10 -116 15 -122 9 -3 -1 -5 -21 -6 -20 0 -45 -4 -55 -7 -10 -3
-14 -2 -8 3 13 11 15 43 3 43 -6 0 -5 6 2 15 8 10 9 15 2 15 -6 0 -9 7 -5 16
12 33 -32 9 -49 -26 -23 -48 -22 -52 12 -46 27 4 29 2 20 -15 -6 -10 -15 -19
-20 -19 -4 0 -16 -3 -26 -7 -12 -5 -15 -3 -9 6 6 10 3 11 -14 2 -11 -7 -21
-14 -21 -17 0 -3 5 -2 12 2 7 4 8 3 4 -4 -10 -17 -36 -3 -29 16 4 13 2 12 -10
-3 -14 -17 -18 -18 -27 -5 -8 13 -10 12 -11 -5 0 -11 -3 -14 -6 -7 -7 17 -23
15 -23 -3 0 -8 -8 -15 -17 -16 -21 -1 -47 -5 -85 -15 -25 -5 -28 -3 -29 17 -1
23 -2 21 -15 -20 -3 -10 -9 -7 -19 12 -17 33 -12 52 15 54 11 1 18 -2 15 -7
-3 -5 4 -8 15 -7 15 1 19 6 14 22 -6 17 -4 17 15 -5 22 -24 22 -24 18 -3 -4
17 -1 20 12 15 14 -5 14 -4 1 13 -13 15 -13 19 -1 23 8 3 1 10 -18 18 -49 20
-95 -1 -112 -53 -6 -21 -11 -39 -10 -41 1 -1 -5 -10 -14 -18 -8 -9 -12 -20 -9
-26 5 -7 0 -9 -14 -6 -11 3 -31 -2 -44 -10 -31 -22 -68 -27 -68 -9 0 14 40 37
65 37 8 0 15 9 15 19 0 14 -6 18 -22 15 l-23 -5 23 10 c12 6 29 8 37 5 17 -7
21 11 5 21 -16 10 -11 25 8 22 18 -2 22 3 22 28 0 10 -10 15 -27 15 l-28 1 28
23 29 23 -28 6 c-35 6 -44 2 -44 -24 0 -11 -4 -18 -9 -15 -11 7 -41 -3 -41
-14 0 -5 12 -13 28 -18 28 -10 26 -12 -25 -28 -7 -2 -13 -10 -13 -18 0 -13 5
-14 28 -6 l27 10 -24 -19 c-15 -11 -19 -20 -12 -22 19 -7 -60 -86 -91 -93 -16
-4 -37 -1 -48 6 -18 11 -23 10 -34 -4 -7 -10 -21 -18 -30 -18 -14 0 -16 6 -10
35 5 31 4 35 -15 35 -11 0 -21 5 -21 10 0 6 7 10 15 10 19 0 19 16 0 24 -8 3
-15 12 -15 19 0 26 -50 6 -78 -32 -15 -20 -31 -39 -36 -42 -4 -4 -2 -9 5 -12
11 -4 11 -6 -1 -6 -9 -1 -21 -14 -27 -31 -9 -25 -9 -30 3 -30 9 0 12 -4 9 -10
-3 -5 -13 -10 -21 -10 -9 0 -22 -7 -31 -15 -19 -19 -31 -11 -14 9 9 11 9 16 0
21 -12 8 -31 -14 -23 -27 3 -4 1 -8 -5 -8 -5 0 -9 9 -8 20 1 11 4 20 7 20 11
0 8 40 -3 41 -7 0 -4 4 7 8 17 7 17 8 2 24 -21 21 -50 23 -43 3 4 -10 1 -13
-9 -9 -17 6 -19 -8 -3 -24 8 -8 4 -16 -15 -28 -14 -10 -23 -21 -21 -26 3 -4
-4 -13 -15 -19 -11 -6 -20 -20 -20 -30 0 -11 -4 -20 -10 -20 -5 0 -10 4 -10 9
0 14 -34 8 -48 -9 -11 -13 -13 -11 -8 10 2 14 8 47 12 73 3 27 12 51 20 54 10
4 11 9 1 23 -17 28 -2 35 29 15 15 -9 23 -12 20 -6 -4 6 -1 11 6 11 8 0 6 5
-4 11 -10 5 -18 15 -18 20 0 6 5 7 10 4 15 -9 12 11 -4 24 -11 9 -15 9 -18 0
-3 -8 -8 -7 -16 3 -10 12 -7 14 18 13 41 -2 58 10 32 24 -23 12 -59 78 -48 88
3 3 6 1 6 -4 0 -11 46 -11 57 0 3 4 -3 10 -13 14 -14 6 -19 18 -19 42 0 29 -4
35 -24 36 -30 2 -70 -33 -51 -45 9 -6 6 -10 -9 -15 -14 -4 -20 -12 -17 -21 3
-8 1 -14 -5 -14 -6 0 -7 -4 -4 -10 3 -5 -1 -10 -10 -10 -11 0 -15 -5 -11 -15
3 -8 1 -15 -4 -15 -6 0 -10 -5 -10 -11 0 -7 11 -9 28 -5 15 3 21 3 15 0 -19
-8 -16 -22 3 -20 9 0 19 -6 21 -14 4 -12 3 -13 -5 -1 -5 7 -15 10 -22 6 -8 -5
-7 -12 6 -26 9 -10 21 -16 25 -13 14 8 11 -16 -4 -29 -6 -7 -24 -17 -38 -24
-25 -11 -47 -53 -28 -53 5 0 9 5 9 10 0 6 14 10 31 10 l30 0 -7 -56 c-9 -75
-48 -124 -56 -71 -3 20 -5 18 -25 -15 -26 -45 -38 -48 -41 -11 -3 38 -8 39
-26 5 -15 -29 -76 -70 -76 -51 0 20 -17 7 -33 -26 -19 -40 -59 -49 -77 -16
-13 26 -13 34 3 25 9 -6 9 -4 0 7 -7 7 -13 23 -13 35 0 37 -19 38 -52 4 -27
-28 -28 -31 -8 -25 15 5 20 3 16 -3 -3 -6 9 -23 29 -38 19 -14 35 -29 35 -33
0 -3 -16 -6 -36 -7 -30 0 -34 1 -21 11 12 9 14 14 5 23 -14 14 -58 16 -58 3 0
-5 10 -7 23 -4 18 5 20 3 9 -8 -13 -14 -84 -20 -76 -7 2 4 0 9 -6 13 -13 8 -3
25 13 25 7 0 6 -4 -3 -11 -12 -9 -12 -10 3 -5 10 3 21 6 23 6 2 0 4 5 4 10 0
6 -7 10 -15 10 -14 0 -14 3 0 30 19 37 19 37 -6 43 -12 3 -18 10 -15 15 8 13
-3 42 -15 42 -5 0 -13 -8 -16 -17 -4 -10 -15 -30 -26 -45 -11 -14 -17 -31 -13
-36 3 -5 -4 -13 -17 -17 -19 -6 -19 -8 -5 -12 15 -4 16 -7 4 -18 -7 -8 -23
-11 -35 -8 -23 6 -29 23 -8 24 6 0 2 5 -10 11 -13 6 -23 15 -23 20 0 5 4 7 9
3 5 -3 12 -1 16 5 3 5 -1 10 -11 10 -14 0 -14 3 -4 15 11 13 10 14 -6 9 -16
-6 -17 -5 -6 7 17 18 15 30 -4 22 -11 -4 -15 -1 -12 13 2 11 8 22 13 26 6 5 5
8 -3 8 -7 0 -10 5 -6 11 4 8 -1 9 -17 4 -13 -4 -21 -4 -16 0 4 5 17 9 29 10
52 4 9 45 -47 45 -13 0 -31 3 -41 7 -14 5 -11 9 17 20 27 11 29 12 6 8 -15 -3
-36 -1 -47 5 -18 10 -20 7 -20 -20 0 -19 -4 -29 -10 -25 -6 4 -8 10 -5 15 5 8
-32 37 -75 57 -24 11 -24 11 -3 12 30 1 57 55 37 72 -13 10 -12 14 2 31 11 11
25 16 36 12 10 -3 18 -1 18 5 0 5 9 13 20 16 17 5 18 10 9 27 -9 17 -17 19
-62 14 -50 -5 -51 -5 -23 8 l30 14 -40 6 c-21 3 -53 4 -69 2 -37 -5 -105 -44
-105 -59 0 -7 -5 -4 -11 6 -13 22 -39 22 -39 0 0 -16 -3 -15 -18 3 -9 12 -29
24 -44 28 -29 7 -36 -2 -17 -21 11 -11 -7 -53 -23 -53 -5 0 -8 -76 -8 -169 l0
-169 36 -7 c20 -3 39 -4 42 -1 3 3 0 6 -6 6 -7 0 -12 6 -12 14 0 15 30 26 73
26 15 0 27 4 27 9 0 6 12 6 28 2 33 -10 92 -8 110 3 7 4 16 5 20 1 3 -3 0 -10
-7 -15 -8 -4 -11 -15 -8 -24 4 -9 2 -16 -4 -16 -6 0 -7 -4 -4 -10 7 -12 -44
-59 -65 -60 -11 0 -10 -3 4 -12 15 -8 25 -7 48 7 16 9 32 14 35 11 3 -3 -1 -8
-10 -12 -13 -5 -14 -9 -4 -25 15 -24 -6 -50 -25 -31 -9 9 -8 12 5 12 9 0 17 5
17 11 0 7 -9 9 -22 5 -13 -3 -26 -6 -30 -6 -5 0 -8 -9 -8 -19 0 -11 -6 -22
-12 -24 -7 -3 -4 -6 7 -6 18 -1 18 -2 -3 -17 -25 -18 -30 -39 -6 -30 13 5 15
2 11 -14 -3 -11 -1 -20 4 -20 5 0 9 5 9 10 0 6 10 10 21 10 19 0 21 -4 14 -37
-4 -21 -8 -44 -9 -51 -2 -13 -62 -72 -74 -72 -3 0 -1 5 6 12 17 17 15 28 -5
28 -16 1 -16 2 1 15 19 14 18 15 -15 16 -19 0 -28 3 -21 6 6 2 10 8 7 13 -3 4
6 11 20 14 34 9 32 26 -2 26 -25 1 -26 2 -11 13 15 12 14 15 -7 35 -23 22 -24
22 -54 4 -24 -15 -28 -21 -18 -31 9 -10 8 -11 -7 -5 -13 5 -17 4 -12 -4 4 -7
1 -12 -8 -12 -9 0 -16 -9 -16 -20 0 -12 -7 -20 -16 -20 -13 0 -14 -3 -4 -15
10 -12 7 -15 -14 -21 l-25 -6 -1 -604 0 -604 1755 0 c1748 0 1755 0 1755 20 0
16 7 20 36 20 20 0 33 4 29 10 -3 5 -38 7 -84 3 -50 -4 -80 -2 -85 5 -4 6 10
10 39 10 43 -1 64 6 53 17 -3 3 -34 10 -69 14 l-64 8 80 3 c44 1 129 2 188 1
98 0 107 2 96 16 -11 13 -28 14 -99 9 -47 -4 -125 -9 -175 -12 -49 -2 -91 -9
-93 -14 -2 -6 -47 -9 -110 -8 -59 1 -89 3 -67 5 62 5 226 23 263 30 36 6 35
15 -1 19 -41 4 -42 5 -22 14 11 5 36 9 55 9 24 1 31 4 21 10 -11 7 -10 10 5
13 10 2 -83 4 -208 5 -256 2 -330 16 -147 28 63 4 137 11 166 14 29 4 50 4 47
-1 -3 -4 12 -8 33 -8 27 0 34 3 24 9 -21 13 9 18 138 25 58 3 107 9 110 13 3
4 32 8 64 8 55 0 75 9 40 18 -10 3 1 5 25 6 27 1 42 -3 42 -11 0 -10 17 -12
62 -10 40 3 56 7 47 13 -9 5 14 8 61 7 l75 -1 -55 -7 c-54 -7 -54 -7 10 -4
133 8 283 10 238 4 -66 -8 -66 -15 0 -16 31 -1 68 -3 82 -4 51 -5 101 0 95 10
-4 7 50 10 157 9 177 -2 414 -14 333 -18 -27 -1 -88 -8 -135 -15 -50 -7 -101
-9 -125 -5 -34 7 -43 5 -58 -13 -21 -25 -14 -35 28 -40 l30 -4 -30 -13 c-16
-7 -47 -10 -67 -8 -21 3 -38 1 -38 -4 0 -10 -28 -18 -103 -29 l-52 -8 45 -1
c34 -1 41 -4 28 -11 -9 -6 -34 -10 -55 -10 -21 0 -91 1 -156 1 -122 1 -177 -9
-71 -13 57 -2 97 -4 179 -9 35 -2 32 -3 -20 -9 -33 -4 -77 -5 -97 -3 -20 3
-50 2 -65 -2 -26 -7 -27 -8 -8 -16 16 -8 15 -8 -5 -3 -14 3 -61 9 -104 11 -71
5 -78 4 -73 -11 6 -15 0 -17 -41 -14 -34 2 -47 7 -47 18 0 9 -9 15 -25 15 -16
0 -24 -5 -22 -14 2 -11 -7 -13 -43 -8 -26 2 -59 0 -75 -6 -22 -8 -33 -7 -52 5
-27 18 -168 24 -168 8 0 -6 26 -10 58 -10 52 -1 55 -2 38 -15 -17 -13 -17 -15
-3 -15 9 0 29 -6 44 -12 l27 -13 -44 -6 c-25 -3 564 -7 1308 -7 l1352 -2 0
404 0 405 -22 4 -23 4 22 2 22 1 1 569 0 569 -47 17 c-27 9 -67 18 -89 20 -23
2 -57 10 -75 18 -19 8 -52 17 -74 21 -22 4 -46 12 -52 18 -7 6 -20 8 -28 4 -9
-3 -18 1 -21 9 -4 8 -9 13 -13 10 -5 -2 -23 0 -42 5 -19 5 -50 11 -69 13 -20
2 -41 7 -48 11 -7 4 -17 4 -23 0 -6 -3 -15 -1 -19 6 -9 14 -24 16 -157 25 -59
4 -83 2 -83 -6 0 -6 -7 -8 -16 -5 -9 4 -22 2 -29 -4 -7 -6 -29 -11 -49 -12
-20 -1 -36 -5 -36 -9 0 -4 -18 -9 -40 -11 -23 -2 -40 1 -40 7 0 5 -4 4 -9 -4
-5 -8 -20 -16 -32 -18 -12 -2 -41 -12 -63 -22 -54 -25 -79 -35 -89 -32 -4 0
-18 -4 -30 -11 -12 -7 -42 -20 -67 -29 -25 -9 -53 -19 -62 -23 -13 -6 -19 -1
-27 26 l-9 33 -1 -32 c-1 -24 -6 -33 -18 -34 -48 -1 -109 -11 -118 -19 -16
-13 -103 -21 -110 -10 -3 6 -12 10 -18 10 -8 0 -8 -3 2 -9 14 -9 5 -18 -19
-16 -8 0 -18 -4 -22 -10 -11 -15 -228 -15 -228 0 0 21 -30 26 -53 10 -16 -11
-24 -12 -34 -3 -11 9 -15 7 -20 -10 -3 -12 -9 -19 -15 -16 -5 3 -15 1 -22 -5
-10 -8 -17 -7 -26 4 -14 17 -55 21 -45 5 4 -6 11 -8 16 -5 5 4 9 1 9 -4 0 -6
-6 -11 -14 -11 -8 0 -17 -6 -19 -12 -4 -8 -8 -4 -12 10 -4 12 -11 22 -15 22
-20 0 -16 31 6 56 19 19 22 29 14 34 -7 4 -9 13 -5 20 5 8 3 11 -6 8 -8 -3
-14 -17 -14 -31 1 -14 -3 -23 -7 -21 -4 3 -16 0 -25 -5 -17 -10 -16 -10 2 -11
18 -1 17 -2 -4 -11 -16 -6 -22 -15 -18 -28 4 -17 2 -17 -25 -4 -19 10 -27 20
-24 30 4 10 2 13 -7 10 -7 -3 -19 4 -25 14 -9 13 -9 19 -1 19 16 0 5 23 -13
26 -8 1 -23 -11 -32 -27 -16 -27 -16 -29 0 -29 14 0 14 -3 4 -15 -7 -9 -19
-14 -25 -11 -7 2 -18 -1 -24 -7 -8 -8 -11 -7 -11 4 0 10 -9 16 -28 16 -48 0
-82 12 -82 31 0 12 -8 17 -29 17 -16 1 -27 -3 -25 -7 3 -4 -2 -8 -12 -8 -13 0
-14 -3 -4 -15 10 -12 7 -17 -16 -26 -33 -14 -51 -15 -221 -22 -68 -3 -123 -2
-123 2 0 32 109 72 232 85 42 4 64 13 85 32 18 17 35 24 50 21 18 -3 21 -1 13
8 -6 7 -9 21 -8 31 5 37 -14 170 -21 150 -7 -18 -8 -18 -14 -2 -10 24 -9 26 7
26 19 0 14 36 -25 190 -26 101 -34 119 -64 147 -21 19 -50 35 -73 38 -20 3
-45 11 -56 16 -10 6 -49 9 -87 8 -45 -3 -73 1 -81 9 -6 6 -19 12 -27 12 -8 0
-11 3 -8 6 3 4 1 16 -4 27 -8 15 -8 22 2 28 9 5 17 0 25 -19 l11 -27 7 28 c3
15 9 39 12 55 6 27 6 27 15 5 27 -69 28 -69 28 -6 1 44 7 72 21 95 20 33 28
98 11 98 -5 0 -11 25 -13 55 -4 52 -8 59 -61 110 -31 30 -60 55 -65 55 -5 0
-12 9 -15 20 -3 11 -10 20 -17 20 -7 0 -14 -9 -17 -20z m130 -148 c11 -10 17
-29 17 -56 0 -40 -1 -41 -18 -20 -9 12 -32 29 -49 38 -18 9 -33 23 -33 32 0 9
-5 12 -12 8 -9 -5 -10 -4 -3 4 23 23 66 21 98 -6z m-207 3 c-3 -8 -1 -15 4
-15 16 0 -1 -29 -20 -35 -10 -3 -21 -16 -23 -28 -3 -13 -4 -9 -4 10 1 17 5 29
10 26 5 -3 6 4 3 15 -5 14 -1 24 11 31 24 14 26 14 19 -4z m84 -14 c0 -16 -33
-22 -46 -9 -11 11 -8 13 16 15 17 1 30 -2 30 -6z m105 -71 c7 -11 -9 -11 -45
0 -24 8 -24 8 7 9 17 1 35 -3 38 -9z m39 -55 c5 -23 2 -44 -8 -62 -15 -27 -15
-27 -9 22 6 45 5 49 -10 37 -24 -21 -42 -4 -21 19 25 28 41 23 48 -16z m-134
5 c0 -5 -7 -10 -16 -10 -8 0 -12 5 -9 10 3 6 10 10 16 10 5 0 9 -4 9 -10z
m-133 -22 c-3 -8 -6 -5 -6 6 -1 11 2 17 5 13 3 -3 4 -12 1 -19z m96 -83 c0 -6
-7 -11 -16 -13 -12 -3 -15 1 -11 13 7 17 25 17 27 0z m77 5 c0 -5 -7 -10 -15
-10 -8 0 -15 5 -15 10 0 6 7 10 15 10 8 0 15 -4 15 -10z m-72 -114 c-2 -13
-12 -22 -27 -24 -19 -3 -22 0 -17 13 3 9 6 23 6 30 0 8 7 11 21 8 14 -4 19
-12 17 -27z m235 -97 c19 19 27 12 27 -24 0 -19 -4 -35 -10 -35 -5 0 -10 9
-10 20 0 11 -4 20 -9 20 -4 0 -6 -11 -4 -24 5 -25 -8 -29 -35 -12 -10 6 -11
11 -3 19 6 6 11 17 11 25 0 12 -2 12 -17 1 -15 -13 -15 -12 -3 7 12 19 15 20
28 7 10 -10 18 -11 25 -4z m-3 11 c0 -5 -2 -10 -4 -10 -3 0 -8 5 -11 10 -3 6
-1 10 4 10 6 0 11 -4 11 -10z m-300 -19 c0 -5 -11 -11 -25 -13 -26 -5 -35 6
-12 15 20 9 37 8 37 -2z m147 -18 c-36 -27 -30 -25 -129 -27 -74 -1 -95 9 -33
16 22 2 29 8 27 20 -3 16 6 18 81 16 l84 -3 -30 -22z m368 -100 c7 -32 16 -71
20 -88 l7 -30 -22 34 c-12 19 -24 60 -29 97 -9 79 6 71 24 -13z m-318 42 c0
-8 -4 -12 -9 -9 -5 3 -6 10 -3 15 9 13 12 11 12 -6z m167 -10 c3 -8 1 -15 -4
-15 -6 0 -10 7 -10 15 0 8 2 15 4 15 2 0 6 -7 10 -15z m-294 -3 c0 -18 -36
-48 -52 -44 -10 2 -18 -1 -18 -7 0 -6 10 -11 23 -12 15 -1 11 -4 -13 -9 -23
-6 -36 -5 -39 2 -2 6 -7 5 -13 -3 -7 -10 -8 -4 -3 16 8 38 6 36 60 43 31 3 42
8 33 13 -10 7 -9 9 5 9 9 0 17 -4 17 -8z m227 -11 c3 -11 11 -22 19 -25 16 -6
19 -46 3 -46 -16 0 -79 31 -79 39 0 11 34 51 43 51 5 0 11 -9 14 -19z m43 4
c0 -8 -4 -15 -10 -15 -5 0 -10 7 -10 15 0 8 5 15 10 15 6 0 10 -7 10 -15z
m-425 -50 c-14 -13 -25 -29 -25 -35 0 -5 -7 -10 -15 -10 -8 0 -15 6 -15 13 0
6 -3 22 -6 35 -6 20 -3 22 39 22 l46 0 -24 -25z m465 -6 c0 -5 -7 -9 -15 -9
-8 0 -15 7 -15 15 0 9 6 12 15 9 8 -4 15 -10 15 -15z m-440 -19 c0 -5 -5 -10
-11 -10 -5 0 -7 5 -4 10 3 6 8 10 11 10 2 0 4 -4 4 -10z m610 -79 c0 -5 -7
-12 -16 -15 -14 -5 -15 -4 -4 9 14 17 20 19 20 6z m8 -57 c1 -17 -2 -24 -11
-22 -17 6 -22 48 -5 48 8 0 15 -12 16 -26z m-816 -60 c-4 -22 -6 -24 -14 -10
-9 16 -3 36 11 36 5 0 6 -12 3 -26z m378 4 c43 -30 52 -52 15 -38 -33 13 -90
13 -133 1 -43 -13 -41 3 6 33 47 31 70 32 112 4z m-156 -115 c1 -26 9 -42 27
-55 22 -17 33 -18 94 -10 39 5 75 11 80 13 6 2 12 0 15 -6 3 -5 -32 -14 -83
-20 -74 -9 -94 -8 -129 6 -26 10 -37 19 -29 23 9 6 9 11 0 22 -9 11 -8 14 6
14 14 0 15 6 10 33 -4 17 -4 29 0 25 5 -5 9 -24 9 -45z m-2644 -193 c0 -5 -5
-10 -11 -10 -5 0 -7 5 -4 10 3 6 8 10 11 10 2 0 4 -4 4 -10z m4390 -14 c0 -8
-4 -17 -9 -21 -6 -3 -9 4 -8 15 1 23 17 28 17 6z m-1670 -10 c0 -3 -4 -8 -10
-11 -5 -3 -10 -1 -10 4 0 6 5 11 10 11 6 0 10 -2 10 -4z m154 -12 c3 -8 2 -12
-4 -9 -6 3 -10 10 -10 16 0 14 7 11 14 -7z m804 -23 c3 -8 -1 -12 -9 -9 -7 2
-15 10 -17 17 -3 8 1 12 9 9 7 -2 15 -10 17 -17z m-2828 -33 c0 -5 -4 -8 -10
-8 -5 0 -10 10 -10 23 0 18 2 19 10 7 5 -8 10 -18 10 -22z m1670 -8 c0 -5 -2
-10 -4 -10 -3 0 -8 5 -11 10 -3 6 -1 10 4 10 6 0 11 -4 11 -10z m90 6 c0 -8
-71 -12 -76 -4 -3 4 13 8 35 8 23 0 41 -2 41 -4z m233 -3 c-29 -2 -78 -2 -110
0 -32 2 -8 3 52 3 61 0 87 -1 58 -3z m370 0 c-7 -2 -21 -2 -30 0 -10 3 -4 5
12 5 17 0 24 -2 18 -5z m37 -3 c0 -5 -4 -10 -10 -10 -5 0 -10 5 -10 10 0 6 5
10 10 10 6 0 10 -4 10 -10z m30 0 c0 -5 -4 -10 -10 -10 -5 0 -10 5 -10 10 0 6
5 10 10 10 6 0 10 -4 10 -10z m25 0 c3 -5 1 -10 -4 -10 -6 0 -11 5 -11 10 0 6
2 10 4 10 3 0 8 -4 11 -10z m-985 -4 c0 -3 -4 -8 -10 -11 -5 -3 -10 -1 -10 4
0 6 5 11 10 11 6 0 10 -2 10 -4z m103 -3 c-7 -2 -19 -2 -25 0 -7 3 -2 5 12 5
14 0 19 -2 13 -5z m1022 -8 c81 -17 142 -42 149 -61 3 -8 0 -11 -10 -7 -7 3
-14 8 -14 12 0 10 -95 38 -185 56 -38 7 -56 13 -40 14 17 0 62 -6 100 -14z
m-1287 -2 c-10 -2 -28 -2 -40 0 -13 2 -5 4 17 4 22 1 32 -1 23 -4z m819 -9
c-3 -3 -13 -7 -24 -8 -10 -2 -17 -7 -15 -11 5 -12 -34 -26 -52 -19 -8 3 -17 0
-21 -6 -7 -12 -35 5 -35 21 0 12 47 11 55 -1 4 -6 15 -4 29 8 20 15 77 30 63
16z m210 0 c-3 -3 -12 -4 -19 -1 -8 3 -5 6 6 6 11 1 17 -2 13 -5z m-885 -16
c-16 -8 -21 -18 -18 -37 2 -16 9 -24 17 -22 8 2 30 5 49 7 l35 3 -35 -7 c-20
-4 -39 -16 -45 -27 -8 -16 -16 -19 -35 -14 -20 6 -21 7 -5 8 20 2 20 2 1 13
-19 11 -19 11 -1 24 17 13 17 14 -11 14 -17 0 -35 -5 -40 -10 -8 -8 -15 -6
-24 5 -12 14 -11 18 1 26 11 7 10 9 -5 9 -11 0 -16 3 -13 6 3 4 22 -1 41 -10
42 -20 46 -20 46 -2 0 8 10 17 23 19 38 7 43 6 19 -5z m188 2 c-8 -5 -19 -10
-25 -10 -5 0 -3 5 5 10 8 5 20 10 25 10 6 0 3 -5 -5 -10z m510 -10 c-8 -5 -19
-10 -25 -10 -5 0 -3 5 5 10 8 5 20 10 25 10 6 0 3 -5 -5 -10z m219 -6 c5 -5
-19 -34 -28 -34 -18 0 -43 28 -36 39 6 11 52 8 64 -5z m-679 -3 c0 -19 -22
-23 -38 -7 -15 15 -14 16 11 16 15 0 27 -4 27 -9z m127 3 c-3 -3 -12 -4 -19
-1 -8 3 -5 6 6 6 11 1 17 -2 13 -5z m843 -9 c7 -8 22 -15 34 -15 17 0 18 -2 6
-10 -12 -8 -10 -10 9 -10 20 0 21 -2 11 -15 -14 -17 -45 -21 -35 -5 3 6 2 10
-2 10 -5 0 -13 10 -18 22 -6 13 -19 25 -30 27 -18 3 -18 2 4 -16 20 -16 21
-21 8 -31 -17 -14 -30 -3 -41 36 -6 19 -4 22 17 22 14 0 30 -7 37 -15z m-1173
-1 c-3 -3 -12 -4 -19 -1 -8 3 -5 6 6 6 11 1 17 -2 13 -5z m-402 -14 c-3 -5 1
-10 9 -10 18 0 22 -25 5 -35 -13 -9 -15 -7 -23 28 -4 17 -2 27 4 27 6 0 8 -4
5 -10z m-25 -34 c0 -17 -2 -18 -10 -6 -9 13 -14 7 -11 -12 0 -5 -6 -8 -14 -8
-18 0 -19 11 -2 29 10 11 9 13 -5 8 -10 -4 -18 -2 -18 3 0 10 30 18 48 12 6
-2 12 -14 12 -26z m743 12 c-24 -11 -43 -25 -43 -31 0 -5 8 -3 18 6 28 25 122
21 122 -5 0 -6 -7 -7 -16 -4 -15 6 -54 -9 -65 -26 -8 -12 -40 1 -33 13 3 6 -6
7 -22 3 -28 -7 -28 -7 -13 17 17 26 55 49 79 48 8 0 -4 -9 -27 -21z m385 15
c-10 -2 -28 -2 -40 0 -13 2 -5 4 17 4 22 1 32 -1 23 -4z m-614 -32 c-2 -3 -12
3 -22 13 -16 17 -16 18 5 5 12 -7 20 -15 17 -18z m962 17 c5 -8 -2 -9 -26 -4
-41 8 -83 -15 -73 -41 5 -14 8 -13 14 5 6 17 17 22 43 22 47 0 53 -15 19 -45
-36 -31 -60 -31 -75 0 -8 19 -14 22 -20 13 -4 -7 -8 -8 -8 -3 1 43 105 88 126
53z m-319 -14 c2 -6 -4 -17 -14 -25 -11 -9 -14 -10 -9 -1 9 14 -4 15 -38 2
-29 -11 -44 3 -27 24 13 15 83 15 88 0z m-967 -9 c8 -9 9 -15 2 -15 -6 0 -14
5 -18 11 -4 7 -22 9 -47 6 -27 -4 -36 -2 -26 4 22 14 75 11 89 -6z m300 -1 c8
-8 -4 -11 -42 -12 -44 -1 -50 1 -36 12 20 15 63 15 78 0z m1900 -1 c0 -10 -6
-13 -16 -9 -9 3 -20 6 -25 6 -19 0 0 16 20 17 13 1 21 -4 21 -14z m-2208 -22
c15 -18 15 -19 -3 -24 -11 -3 -19 0 -19 6 0 8 -4 7 -9 -2 -6 -9 -11 -10 -15
-2 -4 6 -12 9 -17 6 -5 -4 -9 1 -9 9 0 8 10 17 23 19 12 2 24 5 27 6 3 0 13
-8 22 -18z m-856 0 c10 8 10 5 1 -15 -12 -26 -27 -35 -27 -16 0 18 -20 11 -21
-7 0 -10 -3 -13 -5 -6 -8 20 16 57 29 44 7 -7 14 -7 23 0z m2368 3 c27 -10 18
-19 -19 -20 -34 0 -42 5 -28 19 8 9 27 9 47 1z m-1714 -34 c12 -16 17 -30 12
-30 -6 0 -13 8 -17 18 -6 16 -7 16 -21 -2 -7 -11 -17 -17 -20 -13 -4 4 -1 13
6 22 11 13 10 14 -6 8 -17 -6 -17 -5 -5 10 19 23 26 22 51 -13z m394 22 c3 -5
-1 -9 -9 -9 -8 0 -15 4 -15 9 0 4 4 8 9 8 6 0 12 -4 15 -8z m-1114 -10 c0 -5
-7 -9 -15 -9 -8 0 -15 4 -15 9 0 4 7 8 15 8 8 0 15 -4 15 -8z m1329 -28 c-19
-23 4 -64 36 -64 14 0 25 6 25 13 0 8 4 7 10 -3 9 -13 10 -13 10 0 0 13 1 13
10 0 6 -10 10 -11 10 -2 0 6 9 12 20 12 11 0 20 -4 20 -10 0 -5 9 -10 20 -10
11 0 20 5 20 10 0 6 23 10 50 10 28 0 50 -4 50 -10 0 -12 73 -13 85 -1 16 14
95 18 95 5 0 -7 8 -15 17 -18 10 -4 14 -4 10 0 -4 4 -2 13 4 21 14 16 86 17
91 1 3 -9 29 -11 89 -9 l85 3 2 -75 c3 -55 0 -76 -10 -80 -8 -2 -110 -5 -228
-6 -118 0 -306 -4 -417 -7 -185 -6 -203 -5 -203 10 0 9 6 16 14 16 8 0 17 8
20 18 8 25 50 47 99 51 5 1 -7 22 -25 47 l-33 47 -247 -6 c-157 -4 -248 -3
-248 3 0 6 15 10 34 10 19 0 36 4 38 9 2 5 66 10 143 11 211 3 233 -4 35 -10
l-175 -6 178 -2 c121 -1 177 1 177 9 0 7 11 8 29 4 24 -5 33 -2 42 14 7 11 17
17 21 14 5 -2 4 -11 -3 -19z m1105 4 c18 -25 21 -48 6 -48 -5 0 -7 6 -4 14 3
9 -3 17 -15 21 -12 3 -21 13 -21 21 0 21 17 17 34 -8z m-3518 -12 c2 -14 -2
-17 -22 -12 -30 8 -31 -8 -2 -28 22 -16 22 -16 -11 -22 -31 -7 -33 -8 -16 -21
23 -16 9 -17 -33 -2 -45 15 -48 45 -6 65 19 9 34 20 34 24 0 9 29 19 44 16 5
-1 10 -10 12 -20z m1044 14 c0 -5 -4 -10 -10 -10 -5 0 -10 5 -10 10 0 6 5 10
10 10 6 0 10 -4 10 -10z m-1110 -4 c0 -2 -7 -7 -16 -10 -8 -3 -12 -2 -9 4 6
10 25 14 25 6z m1944 -11 c3 -9 0 -15 -9 -15 -8 0 -15 7 -15 15 0 8 4 15 9 15
5 0 11 -7 15 -15z m-2074 -15 c0 -5 -4 -10 -10 -10 -5 0 -10 5 -10 10 0 6 5
10 10 10 6 0 10 -4 10 -10z m1030 -24 c0 -3 -4 -8 -10 -11 -5 -3 -10 -1 -10 4
0 6 5 11 10 11 6 0 10 -2 10 -4z m2882 -50 c4 -6 8 -21 8 -34 0 -23 2 -24 70
-20 l70 3 -1 -70 c-1 -38 -3 -62 -6 -52 -3 11 -14 17 -33 17 -21 0 -36 9 -52
30 -12 17 -29 30 -37 29 -11 0 -12 -2 -4 -6 10 -3 9 -8 -2 -19 -11 -12 -57
-14 -257 -13 -134 0 -235 4 -225 8 18 6 18 8 2 21 -22 18 -43 62 -38 78 3 6
21 13 41 14 30 1 26 3 -18 8 l-55 7 70 3 c39 1 138 5 220 9 171 7 237 4 247
-13z m-3824 -6 c15 0 15 -2 2 -10 -23 -15 -30 -12 -29 13 0 12 3 16 6 10 2 -7
12 -13 21 -13z m1987 -10 l-50 -7 40 -2 c22 -1 50 -4 63 -7 12 -2 22 1 22 6 0
6 9 5 22 -2 38 -23 58 -47 58 -73 0 -22 -4 -25 -39 -25 -22 0 -41 -4 -43 -10
-3 -10 -250 -16 -267 -6 -6 4 -11 3 -11 -2 0 -13 -62 -13 -79 1 -12 9 -13 9
-8 0 6 -9 -11 -13 -60 -15 l-68 -3 38 -19 c20 -11 37 -23 37 -28 0 -4 -30 -8
-66 -8 l-65 0 2 63 c2 61 3 62 33 67 26 4 31 10 34 37 l3 32 137 3 c285 6 321
6 267 -2z m-1941 -6 c24 -9 19 -21 -11 -32 -19 -6 -36 -6 -52 1 -23 11 -23 11
10 23 19 7 35 13 36 13 1 1 8 -2 17 -5z m-34 -55 c4 7 10 9 13 4 3 -5 2 -15
-3 -23 -11 -17 -40 -4 -49 21 -4 12 -2 12 13 0 14 -12 19 -12 26 -2z m-24 -35
c24 -6 34 -24 12 -24 -6 0 -9 -3 -5 -6 3 -3 -5 -16 -18 -29 -14 -12 -22 -25
-18 -28 3 -4 -1 -7 -10 -7 -12 0 -17 8 -17 26 0 19 4 25 15 20 17 -6 21 9 5
19 -12 7 -13 48 -2 59 4 4 8 1 10 -8 2 -9 14 -19 28 -22z m238 10 c18 -7 12
-24 -10 -24 -8 0 -14 7 -14 15 0 17 2 18 24 9z m2046 -19 c0 -14 -4 -25 -10
-25 -11 0 -14 33 -3 43 11 11 13 8 13 -18z m-1965 5 c13 -5 14 -9 5 -9 -8 0
-24 4 -35 9 -13 5 -14 9 -5 9 8 0 24 -4 35 -9z m1895 -10 c0 -11 -4 -20 -10
-20 -5 0 -10 9 -10 20 0 11 5 20 10 20 6 0 10 -9 10 -20z m40 0 c0 -11 -6 -20
-14 -20 -9 0 -12 7 -9 20 3 11 9 20 14 20 5 0 9 -9 9 -20z m70 -6 c0 -14 -4
-23 -10 -19 -5 3 -10 15 -10 26 0 10 5 19 10 19 6 0 10 -12 10 -26z m40 6 c0
-11 -4 -20 -9 -20 -11 0 -22 26 -14 34 12 12 23 5 23 -14z m-2071 -16 c2 -2
-19 -4 -47 -4 -29 0 -52 4 -52 9 0 8 90 3 99 -5z m89 -4 c-13 -20 -28 -27 -28
-12 0 10 22 32 32 32 5 0 3 -9 -4 -20z m-448 -16 c0 -7 -4 -16 -10 -19 -5 -3
-10 1 -10 9 0 9 -4 16 -10 16 -5 0 -10 4 -10 9 0 5 9 7 20 4 11 -3 20 -11 20
-19z m132 -1 c-6 -2 -10 -9 -6 -14 3 -5 -1 -9 -10 -9 -8 0 -23 -3 -33 -7 -13
-4 -12 -1 6 15 13 12 31 22 40 21 10 0 12 -2 3 -6z m178 -13 c0 -4 -10 -10
-22 -14 -30 -8 -43 -8 -35 1 4 3 3 11 -3 18 -6 8 1 10 25 7 19 -2 35 -8 35
-12z m80 10 c0 -5 -4 -10 -10 -10 -5 0 -10 5 -10 10 0 6 5 10 10 10 6 0 10 -4
10 -10z m1553 -7 c-7 -2 -21 -2 -30 0 -10 3 -4 5 12 5 17 0 24 -2 18 -5z m540
0 c-7 -2 -21 -2 -30 0 -10 3 -4 5 12 5 17 0 24 -2 18 -5z m1537 -3 c0 -5 -4
-10 -9 -10 -6 0 -13 5 -16 10 -3 6 1 10 9 10 9 0 16 -4 16 -10z m-3856 -26 c9
-24 7 -27 -9 -10 -17 17 -19 26 -6 26 5 0 12 -7 15 -16z m2635 -25 c3 -11 1
-12 -11 -2 -8 7 -18 9 -22 5 -4 -4 -6 0 -4 8 2 8 -3 14 -10 12 -8 -1 -10 2 -7
8 8 13 46 -9 54 -31z m-2773 -5 c-3 -9 -6 -22 -6 -30 0 -8 -4 -14 -10 -14 -5
0 -10 14 -10 30 0 21 5 30 16 30 11 0 14 -5 10 -16z m1784 -14 c0 -5 10 -10
21 -10 21 0 21 -1 -4 -24 -17 -15 -24 -31 -21 -40 4 -11 0 -16 -11 -16 -15 0
-17 6 -11 38 3 20 6 43 6 50 0 6 5 12 10 12 6 0 10 -4 10 -10z m116 -14 c23
-23 16 -36 -18 -35 -28 0 -30 2 -13 9 17 7 17 9 3 9 -11 1 -15 6 -12 16 8 19
21 19 40 1z m909 5 c10 -17 -12 -21 -25 -6 -10 12 -10 15 3 15 9 0 18 -4 22
-9z m377 -113 c2 -51 7 -91 12 -90 5 2 13 -3 18 -12 5 -9 21 -16 36 -17 l27
-1 -28 -10 c-22 -8 -27 -15 -22 -31 2 -12 2 -16 -1 -9 -3 6 -18 12 -34 12 -16
0 -31 -6 -33 -12 -4 -8 -8 -4 -12 10 -7 20 -13 22 -81 22 -43 0 -74 4 -74 10
0 6 37 10 90 10 50 0 90 4 90 9 0 5 -10 7 -22 3 -17 -4 -20 -2 -15 12 4 10 7
56 7 102 0 77 2 84 20 84 18 0 20 -8 22 -92z m346 -26 c3 -85 1 -93 -15 -90
-16 3 -18 16 -21 96 -3 85 -1 93 15 90 16 -3 18 -16 21 -96z m-1508 38 c0 -43
-3 -50 -20 -50 -16 0 -20 7 -20 34 0 44 9 66 26 66 10 0 14 -14 14 -50z m760
31 c0 -5 10 -7 23 -5 20 4 21 4 2 -5 -11 -5 -33 -9 -50 -9 -16 0 -22 2 -12 5
9 2 15 9 12 14 -4 5 1 9 9 9 9 0 16 -4 16 -9z m87 -38 c-3 -10 -5 -2 -5 17 0
19 2 27 5 18 2 -10 2 -26 0 -35z m-167 27 c0 -5 -7 -10 -16 -10 -8 0 -12 5 -9
10 3 6 10 10 16 10 5 0 9 -4 9 -10z m-780 -21 c0 -5 -4 -9 -10 -9 -5 0 -10 7
-10 16 0 8 5 12 10 9 6 -3 10 -10 10 -16z m-196 -5 c8 -22 8 -23 -11 -20 -10
2 -21 -2 -25 -8 -5 -6 -8 -2 -8 11 0 19 11 30 31 32 4 1 10 -6 13 -15z m626
-26 c0 -10 -7 -18 -15 -18 -15 0 -21 40 -8 53 9 9 23 -13 23 -35z m-240 7 c0
-16 -6 -25 -15 -25 -9 0 -15 9 -15 25 0 16 6 25 15 25 9 0 15 -9 15 -25z m50
0 c0 -16 -6 -25 -15 -25 -9 0 -15 9 -15 25 0 16 6 25 15 25 9 0 15 -9 15 -25z
m50 0 c0 -18 -5 -25 -20 -25 -20 0 -28 28 -13 43 15 16 33 6 33 -18z m40 0 c0
-16 -6 -25 -15 -25 -15 0 -21 31 -8 43 13 14 23 6 23 -18z m48 0 c-2 -14 -7
-26 -13 -26 -5 0 -11 12 -13 26 -2 18 1 25 13 25 12 0 15 -7 13 -25z m102 -6
c0 -12 -7 -19 -20 -19 -22 0 -29 35 -7 43 18 6 27 -2 27 -24z m40 6 c0 -16 -6
-25 -15 -25 -15 0 -21 31 -8 43 13 14 23 6 23 -18z m50 0 c0 -16 -6 -25 -15
-25 -9 0 -15 9 -15 25 0 16 6 25 15 25 9 0 15 -9 15 -25z m340 17 c0 -4 -37
-8 -82 -9 -139 -2 -138 -2 -132 -18 4 -8 2 -15 -3 -15 -18 0 -22 12 -12 31 9
17 23 19 119 19 61 0 110 -3 110 -8z m132 -54 c-9 -9 -17 -10 -30 -2 -9 6 -28
7 -42 3 -14 -4 -50 -7 -80 -7 -30 1 -44 3 -30 5 14 3 31 10 38 16 10 8 16 7
23 -4 6 -9 9 -10 9 -2 0 9 10 11 30 7 19 -4 30 -2 30 4 0 7 7 9 17 5 13 -5 15
-2 9 13 -6 17 -4 16 16 -3 18 -18 20 -25 10 -35z m-1488 -10 c-7 -11 -34 3
-34 18 0 12 4 12 19 2 11 -7 18 -15 15 -20z m224 12 c-2 -6 -41 -12 -86 -14
-101 -5 -101 3 0 14 40 4 77 8 81 9 5 0 7 -4 5 -9z m112 0 c0 -6 -8 -10 -19
-10 -10 0 -33 -3 -50 -6 -24 -5 -31 -3 -31 8 0 12 13 16 50 17 28 0 50 -4 50
-9z m778 -7 c-10 -2 -26 -2 -35 0 -10 3 -2 5 17 5 19 0 27 -2 18 -5z m100 0
c-16 -2 -40 -2 -55 0 -16 2 -3 4 27 4 30 0 43 -2 28 -4z m427 -33 c-3 -5 -21
-9 -38 -9 l-32 2 35 7 c19 4 36 8 38 9 2 0 0 -3 -3 -9z m1040 0 c3 -5 -1 -10
-9 -10 -9 0 -16 5 -16 10 0 6 4 10 9 10 6 0 13 -4 16 -10z m955 -21 c0 -5 -9
-9 -20 -9 -19 0 -26 11 -14 23 8 8 34 -3 34 -14z m-935 -25 c0 -18 -3 -20 -14
-11 -15 13 -16 13 4 -36 5 -13 3 -18 -6 -17 -28 4 -39 0 -39 -16 0 -13 3 -14
14 -5 29 24 56 -8 56 -66 0 -13 5 -23 10 -23 6 0 10 -4 10 -8 0 -4 -25 -9 -55
-10 -32 -1 -55 2 -55 8 0 5 4 10 9 10 5 0 8 25 6 55 -3 30 0 67 5 82 9 24 8
26 -3 11 -12 -15 -14 -15 -25 3 -15 24 -16 51 -1 29 9 -13 11 -13 22 2 6 9 22
16 36 16 20 -1 26 -6 26 -24z m878 -7 c-3 -4 -6 -7 -7 -5 -1 2 -8 12 -16 22
-14 18 -14 18 7 6 12 -8 19 -18 16 -23z m-108 13 c3 -5 1 -10 -4 -10 -6 0 -11
5 -11 10 0 6 2 10 4 10 3 0 8 -4 11 -10z m-4031 -16 c19 -19 21 -28 4 -17 -7
4 -21 6 -30 5 -18 -3 -24 9 -11 21 10 11 20 8 37 -9z m2906 6 c0 -6 -53 -9
-142 -8 -96 1 -128 3 -98 8 72 11 240 11 240 0z m-432 -7 c-10 -2 -26 -2 -35
0 -10 3 -2 5 17 5 19 0 27 -2 18 -5z m115 0 c-18 -2 -48 -2 -65 0 -18 2 -4 4
32 4 36 0 50 -2 33 -4z m1604 -10 c2 -6 -5 -13 -17 -16 -12 -3 -20 0 -20 7 0
26 29 33 37 9z m593 1 c0 -2 -12 -4 -27 -4 -21 0 -24 3 -14 9 13 8 41 5 41 -5z
m-4140 -4 c0 -5 -4 -10 -10 -10 -5 0 -10 5 -10 10 0 6 5 10 10 10 6 0 10 -4
10 -10z m3394 -11 c-3 -5 -14 -9 -24 -9 -10 0 -20 -5 -22 -11 -2 -7 -10 -4
-18 7 -9 11 -10 15 -2 10 7 -4 19 -1 27 8 16 15 49 11 39 -5z m-989 1 c4 -6
-14 -10 -47 -10 -38 0 -49 3 -38 10 20 13 77 13 85 0z m-2325 -10 c0 -5 -7
-10 -16 -10 -8 0 -12 5 -9 10 3 6 10 10 16 10 5 0 9 -4 9 -10z m1400 -6 c0 -8
-4 -12 -10 -9 -5 3 -10 10 -10 16 0 5 5 9 10 9 6 0 10 -7 10 -16z m168 4 c18
-18 14 -30 -8 -23 -14 4 -22 1 -27 -10 -8 -23 16 -36 41 -23 12 6 18 7 14 3
-4 -4 -2 -17 3 -28 8 -14 8 -22 -1 -27 -8 -5 -7 -11 4 -23 9 -8 16 -18 16 -21
0 -10 -99 -6 -105 4 -3 6 1 10 10 10 13 0 15 7 9 37 -11 59 -10 77 6 96 17 20
22 21 38 5z m-2298 -7 c0 -5 -9 -11 -20 -14 -20 -5 -26 3 -13 16 9 10 33 8 33
-2z m4035 -34 c-20 -11 -29 -3 -21 19 5 13 9 14 22 3 14 -11 14 -13 -1 -22z
m745 23 c0 -5 -7 -10 -16 -10 -8 0 -12 5 -9 10 3 6 10 10 16 10 5 0 9 -4 9
-10z m-575 -15 c10 0 37 -85 27 -86 -4 0 -27 -2 -52 -5 -41 -3 -43 -2 -26 11
12 9 17 22 13 35 -3 11 -1 20 3 20 4 0 6 10 2 22 -4 16 -2 19 9 12 8 -5 18 -9
24 -9z m382 9 c-3 -3 -12 -4 -19 -1 -8 3 -5 6 6 6 11 1 17 -2 13 -5z m-4087
-13 c0 -4 -11 -6 -25 -3 -14 2 -25 6 -25 8 0 2 11 4 25 4 14 0 25 -4 25 -9z
m105 -1 c-3 -5 -25 -9 -48 -8 l-42 1 45 7 c25 4 46 8 48 8 2 1 0 -2 -3 -8z
m45 -6 c0 -2 -7 -4 -15 -4 -8 0 -15 4 -15 10 0 5 7 7 15 4 8 -4 15 -8 15 -10z
m44 8 c2 -4 -4 -8 -15 -8 -10 0 -19 4 -19 8 0 10 27 10 34 0z m56 -4 c0 -4 -4
-8 -9 -8 -6 0 -12 4 -15 8 -3 5 1 9 9 9 8 0 15 -4 15 -9z m-770 -24 c5 -1 15
-2 20 -3 6 0 10 -9 10 -18 0 -15 -2 -16 -10 -3 -8 12 -10 9 -10 -11 0 -15 7
-29 15 -33 31 -12 13 -21 -36 -17 -43 3 -48 5 -33 16 12 8 18 26 18 53 0 23 3
36 8 29 4 -6 12 -13 18 -13z m688 -26 c-2 -13 4 -28 12 -35 13 -11 13 -12 -2
-13 -9 0 -21 8 -26 17 -8 14 -13 10 -31 -23 -12 -21 -20 -30 -18 -19 3 16 -1
21 -17 22 -12 1 -15 -1 -8 -4 14 -6 16 -23 2 -23 -5 0 -12 11 -16 25 -3 14
-13 25 -21 25 -10 0 -14 -7 -10 -20 3 -11 2 -20 -1 -21 -4 0 -15 -2 -24 -4
-10 -2 -18 0 -18 5 0 4 -11 6 -25 5 -16 -2 -25 2 -25 11 0 8 -6 14 -12 14 -9
0 -8 4 2 10 12 8 10 10 -9 10 -36 0 -22 7 31 14 42 6 47 5 53 -14 l7 -22 15
22 c10 13 21 19 33 15 10 -3 21 -2 24 4 3 5 15 7 25 4 10 -3 22 0 25 6 13 21
38 12 34 -11z m142 -14 c0 -7 -7 -14 -14 -17 -10 -4 -13 -1 -9 9 3 7 0 14 -6
14 -6 0 -11 -4 -11 -10 0 -5 -8 -6 -17 -3 -15 6 -15 7 3 14 10 4 13 8 7 8 -7
1 -13 5 -13 10 0 5 14 4 30 -2 17 -6 30 -17 30 -23z m3251 19 c8 -45 5 -53
-16 -53 -22 0 -35 17 -35 46 0 14 49 21 51 7z m-4911 -13 c0 -5 -5 -10 -11
-10 -5 0 -7 5 -4 10 3 6 8 10 11 10 2 0 4 -4 4 -10z m4327 -10 c7 -8 12 -24
12 -35 0 -17 -2 -17 -10 4 -5 13 -17 30 -27 38 -13 10 -14 13 -2 11 8 -2 20
-10 27 -18z m-647 6 c0 -2 -7 -6 -15 -10 -8 -3 -15 -1 -15 4 0 6 7 10 15 10 8
0 15 -2 15 -4z m-2478 -28 c-7 -7 -12 -8 -12 -2 0 14 12 26 19 19 2 -3 -1 -11
-7 -17z m1047 -4 c14 -12 -19 -1 -35 12 -18 14 -18 14 6 3 14 -6 27 -13 29
-15z m3378 13 c-4 -10 2 -13 19 -9 13 2 24 0 24 -4 0 -5 -18 -10 -40 -11 -37
-2 -39 -1 -28 17 14 22 33 27 25 7z m-5387 -12 c0 -8 -7 -15 -16 -15 -14 0
-14 3 -4 15 7 8 14 15 16 15 2 0 4 -7 4 -15z m-213 -1 c-3 -3 -12 -4 -19 -1
-8 3 -5 6 6 6 11 1 17 -2 13 -5z m2709 -31 c-6 -6 -46 20 -46 30 0 4 11 0 25
-9 14 -9 24 -19 21 -21z m-1559 5 c-3 -8 -6 -5 -6 6 -1 11 2 17 5 13 3 -3 4
-12 1 -19z m1138 12 c13 -6 15 -9 5 -9 -8 0 -22 4 -30 9 -18 12 -2 12 25 0z
m1562 -12 c-3 -8 -6 -5 -6 6 -1 11 2 17 5 13 3 -3 4 -12 1 -19z m-1877 3 c-48
-15 -110 -21 -110 -12 0 12 31 18 90 19 35 0 40 -1 20 -7z m2860 -1 c0 -5 -5
-10 -11 -10 -5 0 -7 5 -4 10 3 6 8 10 11 10 2 0 4 -4 4 -10z m70 3 c0 -5 -14
-8 -30 -9 -17 -1 -30 3 -30 7 0 5 14 9 30 9 17 0 30 -3 30 -7z m510 -4 c0 -5
4 -8 9 -4 5 3 13 0 16 -6 5 -6 0 -9 -11 -8 -11 2 -24 1 -29 -3 -6 -4 -17 -3
-25 3 -13 7 -12 9 3 9 9 0 17 5 17 10 0 6 5 10 10 10 6 0 10 -5 10 -11z
m-3010 -13 c0 -15 -5 -14 -70 7 -8 3 4 6 28 6 30 1 42 -3 42 -13z m-1278 -28
c-7 -7 -12 -8 -12 -2 0 14 12 26 19 19 2 -3 -1 -11 -7 -17z m2735 -10 c-3 -7
-5 -2 -5 12 0 14 2 19 5 13 2 -7 2 -19 0 -25z m-1657 -43 c0 -30 5 -66 10 -81
6 -16 7 -30 2 -33 -5 -3 -12 -16 -16 -28 -15 -49 -26 -20 -22 60 2 45 5 97 5
115 2 56 21 25 21 -33z m-258 3 c-10 -22 -11 -21 -11 12 -1 26 2 31 11 22 8
-8 8 -17 0 -34z m178 27 c0 18 2 18 10 3 6 -9 8 -27 6 -40 -3 -13 -5 -27 -6
-33 -3 -16 -29 48 -29 70 l0 20 9 -20 9 -20 1 20z m543 -75 c-3 -11 -7 -20 -9
-20 -2 0 -4 9 -4 20 0 11 4 20 9 20 5 0 7 -9 4 -20z m48 0 c15 -9 19 -22 19
-71 0 -53 -3 -61 -22 -68 -29 -11 -41 15 -39 83 3 68 7 74 42 56z m-254 -22
c-3 -8 -6 -5 -6 6 -1 11 2 17 5 13 3 -3 4 -12 1 -19z m-499 -119 c-10 -5 -18
-22 -18 -36 0 -32 -9 -26 -16 10 -3 18 1 27 13 30 31 8 39 7 21 -4z m134 -7
c-12 -2 -20 -8 -17 -13 4 -5 2 -9 -4 -9 -5 0 -13 5 -16 10 -11 18 4 27 32 21
26 -5 26 -6 5 -9z m179 -29 c6 -17 3 -22 -17 -26 -13 -2 -24 0 -24 4 0 5 7 9
15 9 8 0 15 7 15 16 0 8 -4 12 -10 9 -5 -3 -10 -1 -10 5 0 18 22 6 31 -17z
m-239 -5 c-17 -8 -26 -8 -34 0 -9 9 -4 12 23 11 32 0 33 -1 11 -11z m548 -43
c14 -19 14 -19 -2 -6 -10 7 -18 18 -18 24 0 6 1 8 3 6 1 -2 9 -13 17 -24z
m-436 7 c2 -4 1 -23 -4 -42 l-8 -35 -1 35 c-1 26 -4 31 -11 20 -8 -13 -10 -13
-10 1 0 25 22 39 34 21z m523 -66 c-21 -22 -22 -22 -25 -3 -4 22 14 38 34 30
9 -3 7 -11 -9 -27z m-797 -10 c0 -2 -7 -6 -15 -10 -8 -3 -15 -1 -15 4 0 6 7
10 15 10 8 0 15 -2 15 -4z m1618 -73 c-10 -2 -28 -2 -40 0 -13 2 -5 4 17 4 22
1 32 -1 23 -4z m527 -3 c3 -5 1 -10 -4 -10 -6 0 -11 5 -11 10 0 6 2 10 4 10 3
0 8 -4 11 -10z m336 -61 c47 -6 93 -15 100 -20 27 -17 -2 -21 -63 -10 -140 26
-161 30 -166 36 -8 8 33 6 129 -6z m-1768 -56 c-7 -2 -19 -2 -25 0 -7 3 -2 5
12 5 14 0 19 -2 13 -5z m210 -9 c64 -11 43 -27 -28 -22 -36 3 -65 2 -65 -2 0
-4 -28 -10 -62 -14 -34 -3 -76 -11 -93 -17 -21 -8 -54 -9 -101 -3 -51 6 -60 9
-34 11 19 2 44 8 55 13 11 4 67 11 124 14 57 4 111 11 120 16 19 11 34 12 84
4z m1390 -11 c-7 -2 -21 -2 -30 0 -10 3 -4 5 12 5 17 0 24 -2 18 -5z m444 1
c-3 -3 -12 -4 -19 -1 -8 3 -5 6 6 6 11 1 17 -2 13 -5z m-2567 -52 c0 -4 32 -6
70 -4 47 3 70 1 70 -7 0 -6 8 -11 18 -11 10 0 22 -3 26 -7 8 -8 18 -9 81 -12
58 -2 39 -21 -20 -21 -38 0 -57 4 -61 14 -3 7 -15 12 -27 10 -64 -9 -158 -11
-146 -3 8 5 28 9 44 10 17 1 -1 5 -40 10 -38 4 -88 6 -110 4 -28 -3 -23 0 20
9 77 18 75 17 75 8z m-212 -9 c-10 -2 -26 -2 -35 0 -10 3 -2 5 17 5 19 0 27
-2 18 -5z m52 -13 c0 -5 -7 -10 -15 -10 -8 0 -15 5 -15 10 0 6 7 10 15 10 8 0
15 -4 15 -10z m673 3 c-7 -2 -21 -2 -30 0 -10 3 -4 5 12 5 17 0 24 -2 18 -5z
m-134 -27 c-12 -10 -59 -15 -59 -6 0 5 14 10 32 10 17 0 29 -2 27 -4z m136 -6
c8 -13 -65 -13 -85 0 -11 7 -2 10 32 10 26 0 50 -5 53 -10z m155 0 c8 -5 13
-10 10 -11 -14 -4 -140 -7 -140 -4 0 7 62 23 90 24 14 0 32 -4 40 -9z m930 0
c0 -5 -7 -10 -16 -10 -8 0 -12 5 -9 10 3 6 10 10 16 10 5 0 9 -4 9 -10z m-400
-10 c0 -5 -4 -10 -9 -10 -6 0 -13 5 -16 10 -3 6 1 10 9 10 9 0 16 -4 16 -10z
m-1123 -6 c-3 -3 -12 -4 -19 -1 -8 3 -5 6 6 6 11 1 17 -2 13 -5z m836 -11 c-7
-2 -19 -2 -25 0 -7 3 -2 5 12 5 14 0 19 -2 13 -5z m504 1 c-3 -3 -12 -4 -19
-1 -8 3 -5 6 6 6 11 1 17 -2 13 -5z"/>
<path d="M3735 1660 c-3 -5 -2 -10 4 -10 5 0 13 5 16 10 3 6 2 10 -4 10 -5 0
-13 -4 -16 -10z"/>
<path d="M3455 1550 c3 -5 10 -10 16 -10 5 0 9 5 9 10 0 6 -7 10 -16 10 -8 0
-12 -4 -9 -10z"/>
<path d="M3598 1548 c9 -9 15 -9 24 0 9 9 7 12 -12 12 -19 0 -21 -3 -12 -12z"/>
<path d="M4298 1453 c7 -3 16 -2 19 1 4 3 -2 6 -13 5 -11 0 -14 -3 -6 -6z"/>
<path d="M1918 1423 c7 -3 16 -2 19 1 4 3 -2 6 -13 5 -11 0 -14 -3 -6 -6z"/>
<path d="M3515 1040 c3 -5 10 -10 16 -10 5 0 9 5 9 10 0 6 -7 10 -16 10 -8 0
-12 -4 -9 -10z"/>
<path d="M4450 3180 c-9 -8 -28 -22 -43 -30 -20 -9 -27 -20 -24 -32 6 -22 -18
-48 -44 -48 -27 0 -99 -38 -100 -53 -5 -55 23 -104 74 -128 52 -23 79 -44 70
-52 -3 -4 -1 -7 5 -7 7 0 12 -7 12 -15 0 -8 6 -15 13 -15 8 0 22 -9 32 -20 25
-27 183 -48 211 -28 6 5 34 7 62 5 28 -1 49 0 46 4 -4 7 57 19 101 19 36 0
122 39 130 59 11 27 -15 41 -100 52 -28 3 -43 22 -49 60 -9 58 -37 93 -85 108
-23 6 -41 17 -41 23 0 15 -48 58 -66 58 -7 0 -14 6 -14 14 0 23 -18 29 -99 36
-60 5 -78 3 -91 -10z"/>
<path d="M2370 3039 c0 -5 5 -7 10 -4 6 3 10 8 10 11 0 2 -4 4 -10 4 -5 0 -10
-5 -10 -11z"/>
<path d="M5415 3020 c3 -5 10 -10 16 -10 5 0 9 5 9 10 0 6 -7 10 -16 10 -8 0
-12 -4 -9 -10z"/>
<path d="M5223 2687 c-32 -16 -48 -56 -29 -75 13 -13 16 -13 30 1 9 9 25 18
35 22 23 7 35 46 18 57 -15 10 -26 8 -54 -5z"/>
<path d="M5728 2644 c-46 -25 -61 -74 -22 -74 8 0 26 7 40 17 19 12 24 22 20
39 -4 13 -1 24 7 27 8 4 7 6 -3 6 -8 0 -27 -6 -42 -15z"/>
<path d="M5795 2630 c-3 -5 -2 -10 4 -10 5 0 13 5 16 10 3 6 2 10 -4 10 -5 0
-13 -4 -16 -10z"/>
<path d="M1425 2380 c3 -5 8 -10 11 -10 2 0 4 5 4 10 0 6 -5 10 -11 10 -5 0
-7 -4 -4 -10z"/>
<path d="M1500 2336 c0 -2 7 -6 15 -10 8 -3 15 -1 15 4 0 6 -7 10 -15 10 -8 0
-15 -2 -15 -4z"/>
<path d="M6245 2277 c-89 -40 -90 -40 -70 -70 15 -24 16 -29 1 -58 -18 -35
-14 -49 14 -49 10 0 28 -12 39 -26 16 -20 26 -25 46 -20 25 6 25 7 25 126 0
66 -1 120 -2 120 -2 -1 -25 -11 -53 -23z"/>
<path d="M2518 2063 c7 -3 16 -2 19 1 4 3 -2 6 -13 5 -11 0 -14 -3 -6 -6z"/>
<path d="M2676 2055 c4 -8 11 -15 16 -15 6 0 5 6 -2 15 -7 8 -14 15 -16 15 -2
0 -1 -7 2 -15z"/>
<path d="M2790 2060 c-8 -5 -11 -12 -7 -16 4 -4 13 -2 19 4 15 15 7 24 -12 12z"/>
<path d="M2646 2045 c4 -8 11 -15 16 -15 6 0 5 6 -2 15 -7 8 -14 15 -16 15 -2
0 -1 -7 2 -15z"/>
<path d="M211 2029 c12 -24 79 -27 79 -4 0 17 0 17 -52 20 -33 2 -36 0 -27
-16z"/>
<path d="M4887 1979 c4 -13 8 -18 11 -10 2 7 -1 18 -6 23 -8 8 -9 4 -5 -13z"/>
<path d="M4096 1925 c-19 -14 -19 -15 6 -15 14 0 28 7 32 15 7 19 -13 19 -38
0z"/>
<path d="M545 1800 c3 -5 8 -10 11 -10 2 0 4 5 4 10 0 6 -5 10 -11 10 -5 0 -7
-4 -4 -10z"/>
<path d="M375 1789 c-11 -17 9 -25 55 -21 25 3 39 9 37 16 -5 15 -83 20 -92 5z"/>
<path d="M513 1783 c-21 -8 -15 -43 7 -43 15 0 20 7 20 25 0 25 -4 28 -27 18z"/>
<path d="M625 1760 c3 -5 8 -10 11 -10 2 0 4 5 4 10 0 6 -5 10 -11 10 -5 0 -7
-4 -4 -10z"/>
<path d="M590 1650 c0 -5 5 -10 11 -10 5 0 7 5 4 10 -3 6 -8 10 -11 10 -2 0
-4 -4 -4 -10z"/>
<path d="M4460 190 c-13 -8 -12 -10 3 -10 9 0 17 5 17 10 0 12 -1 12 -20 0z"/>
<path d="M4280 160 c-44 -7 -43 -7 20 -8 36 -1 72 3 80 8 18 11 -27 11 -100 0z"/>
<path d="M3490 150 c0 -5 7 -10 15 -10 8 0 15 5 15 10 0 6 -7 10 -15 10 -8 0
-15 -4 -15 -10z"/>
<path d="M3855 120 c19 -8 73 -14 64 -6 -2 2 -22 6 -44 9 -28 5 -34 4 -20 -3z"/>
<path d="M4023 123 c9 -2 25 -2 35 0 9 3 1 5 -18 5 -19 0 -27 -2 -17 -5z"/>
<path d="M3520 10 c0 -5 15 -10 33 -9 27 0 29 2 12 9 -28 12 -45 12 -45 0z"/>
</g>
</svg>
